<svg width="1280" height="640" viewBox="0 0 1280 640" fill="none" xmlns="http://www.w3.org/2000/svg">
<g clip-path="url(#clip0_217_111)">
<mask id="mask0_217_111" style="mask-type:luminance" maskUnits="userSpaceOnUse" x="0" y="0" width="1280" height="640">
<path d="M1280 0H0V640H1280V0Z" fill="white"/>
</mask>
<g mask="url(#mask0_217_111)">
<path d="M1242.61 370.161C1242.88 370.313 1243.14 370.464 1243.4 370.614L1240.02 377.118C1239.29 377.656 1238.59 378.32 1237.85 378.957C1225.02 390.072 1210.14 394.984 1193.19 393.117C1189.68 392.73 1186.32 391.634 1184.75 387.485C1184.83 386.853 1184.92 386.608 1185.29 386.101C1189.34 384.881 1192.32 388.184 1196.37 387.683C1199.81 387.115 1202.95 387.452 1206.37 386.798C1211.61 387.032 1215.9 385.282 1220.34 382.801C1223.5 380.962 1226.72 379.983 1229.58 377.607C1231.06 376.807 1232.32 376.348 1233.41 375.555C1237.18 372.794 1237.28 371.115 1233.62 368.322C1226.2 362.644 1219.8 355.84 1213.4 349.131C1176.15 310.047 1137.51 272.598 1092.52 242.245C1073.81 229.624 1053.39 221.122 1031.8 215.119C1026.38 213.612 1020.96 212.12 1015.42 210.999C1010.98 210.101 1008.54 211.371 1006.76 215.32C1005.54 218.025 1004.12 220.724 1001.82 222.754C1001.07 223.42 1000.13 223.858 998.873 222.85C997.633 219.879 998.933 217.63 1000.05 215.433C1002.02 211.564 1003.79 207.645 1005.38 203.678L1035.94 211.456C1035.93 211.468 1035.91 211.479 1035.9 211.49C1044.21 214.495 1052.3 217.191 1060.22 220.33C1079.53 227.983 1096.6 239.472 1113.23 251.716C1138.95 270.666 1162.5 292.068 1185.21 314.499C1194.06 323.246 1203.05 331.822 1211.62 340.877C1221.38 351.185 1229.98 362.858 1242.61 370.161Z" fill="#301E15"/>
<path d="M1219.78 401.041L1215.73 405.563C1212.5 405.773 1209.26 406.133 1206.02 406.579C1197.83 407.706 1189.6 408.45 1181.38 409.336C1175.31 409.992 1169.22 410.566 1163.15 411.243C1156.97 411.931 1150.83 410.745 1144.82 410.067C1123.89 407.709 1103.4 402.873 1082.97 397.778C1059.39 391.898 1036.56 383.816 1013.91 375.119C1000.62 370.017 987.578 364.029 972.783 362.379C971.213 362.558 970.956 361.824 971.006 360.512C974.397 357.371 978.064 358.42 981.595 359.17C994.017 361.809 1005.66 366.833 1017.34 371.56C1047.31 383.691 1078.26 392.475 1109.79 399.363C1112.71 400.001 1115.5 401.128 1118.9 401.49C1131.58 403.669 1143.86 405.759 1156.33 406.243C1170.84 406.805 1185.09 403.868 1199.48 402.806C1206.18 402.313 1212.81 401.074 1219.78 401.041Z" fill="#301E15"/>
<path d="M967.617 246.002C970.126 246.223 972.137 247.691 974.626 246.287C981.43 247.441 987.641 244.472 990.727 238.609C991.865 236.446 993.301 234.439 994.875 232.15C995.862 231.232 996.205 230.301 996.832 229.201C997.01 228.968 997.002 229.004 996.986 229.013C997.206 228.795 997.439 228.565 997.84 228.156C998.011 227.981 998.008 228.006 997.995 228.01C998.69 227.256 998.877 226.18 999.79 225.2C1000 224.981 1000.01 225.005 999.996 225.009C1000.43 224.586 1000.49 223.996 1000.82 223.217C1000.99 222.986 1001 223 1000.99 222.999C1004.28 220.026 1006.01 216.009 1007.83 212.144C1009.45 208.698 1011.38 207.752 1015.26 208.487C1054.08 215.828 1088.22 232.854 1118.99 257.358C1137.36 271.979 1155.24 287.063 1172.19 303.339C1184.32 314.992 1196.37 326.719 1208.16 338.71C1218.31 349.027 1227.48 360.313 1238.99 369.24C1240.8 370.644 1240.9 371.783 1239.29 373.199C1237.32 374.927 1235.98 377.466 1232.8 378.112C1230.42 378.016 1229.36 376.761 1228.82 374.584C1229.71 372.406 1232.1 372.774 1233.48 370.901C1228.53 366.831 1224.31 362.015 1219.29 357.625C1219.41 362.058 1221.43 365.645 1225.52 369.318C1226.95 370.598 1229.02 371.372 1229.03 373.978C1227.39 375.995 1225.28 375.694 1223.38 376.034C1220.1 376.622 1217.04 377.719 1214.52 379.994C1213.93 380.525 1213.16 381.143 1213.53 382.047C1213.91 382.951 1214.85 382.81 1215.67 382.754C1218.07 382.592 1220.45 381.261 1223.02 382.984C1219.35 386.762 1214.57 387.463 1209.31 387.924C1205.1 382.882 1199.85 380.3 1193.88 379.099C1192.21 378.764 1189.63 378.185 1188.97 380.112C1188.22 382.312 1190.97 382.647 1192.39 383.549C1194.51 384.892 1197.72 384.713 1198.34 388.284C1194.31 389.561 1191.16 387.338 1187.34 386.086C1190.29 392.161 1196.58 391.874 1201.8 391.526C1214.7 390.668 1226.77 387.288 1236.52 378.896L1218.35 402.623C1213.1 402.999 1208 403.931 1202.86 404.347C1187.33 405.605 1171.93 408.762 1156.27 407.932C1144.35 407.3 1132.49 405.767 1120.44 402.945C1109.13 393.895 1096.18 389.603 1082.8 385.673C1054.55 377.38 1026.09 369.514 999.562 356.342C986.233 349.723 974.105 341.149 963.114 331.135C954.474 323.263 948.907 313.364 947.762 301.637C946.067 284.284 947.194 267.377 959.071 253.122C961.385 250.344 963.492 247.221 967.617 246.002Z" fill="#51423B"/>
<path d="M967.85 245.679C964.555 250.43 960.208 254.103 957.06 258.851C952.734 265.375 950.373 272.588 949.493 280.228C947.332 298.991 949.634 316.714 964.692 330.038C981.623 345.017 1000.62 356.848 1022.16 364.15C1041.19 370.604 1060.29 376.878 1079.46 382.9C1087.21 385.332 1095.26 386.787 1102.75 390.082C1109.29 392.962 1115.83 395.868 1119.97 402.576C1096.34 397.867 1072.71 392.512 1049.77 384.665C1031.88 378.544 1014.33 371.444 996.596 364.858C989.278 362.141 981.898 359.561 973.437 360.021C966.642 360.023 960.297 360.01 953.486 359.989C945.586 352.487 942.452 342.885 940.114 332.997C938.159 324.732 940.04 316.48 941.003 308.263C943.084 290.492 945.643 272.787 950.079 255.433C952.039 247.766 953.838 239.962 958.616 233.01C961.975 237.003 963.821 241.896 967.85 245.679Z" fill="#48372F"/>
<path d="M1198.65 388.657C1196.03 385.752 1192.2 386.224 1189.52 384.314C1187.79 383.082 1185.12 382.127 1185.67 379.719C1186.29 377.064 1189.16 377.081 1191.48 377.042C1197.6 376.938 1202.56 380.015 1207.45 383.143C1208.81 384.013 1209.08 385.563 1208.91 387.509C1205.7 389.21 1202.37 388.801 1198.65 388.657Z" fill="#7C685D"/>
<path d="M1228.57 374.018C1229.95 375.234 1231.79 375.704 1232.31 377.817C1230.35 381.098 1226.99 381.906 1223.52 383.213C1220.43 383.835 1217.71 384.464 1214.95 384.861C1213.34 385.093 1211.5 385.24 1210.54 383.47C1209.49 381.533 1211.07 380.41 1212.21 379.292C1216.66 374.963 1222.15 373.698 1228.57 374.018Z" fill="#7C685D"/>
<path d="M959.012 232.588C952.075 246.741 949.013 261.675 947.037 276.877C944.988 292.642 942.837 308.404 941.32 324.224C940.598 331.757 943.127 338.968 946.392 345.79C948.546 350.291 950.723 354.78 952.955 359.628C946.558 360.099 940.176 361.407 933.675 361.158C931.667 361.081 931.252 360.935 931.499 358.736C935.378 324.167 939.84 289.702 949.004 256.039C951.096 248.353 953.155 240.642 956.405 233.34C956.717 232.639 956.913 229.457 959.012 232.588Z" fill="#36231C"/>
<path d="M999.667 225.039C999.948 226.12 999.46 227.032 998.27 227.868C997.944 226.815 998.086 225.701 999.667 225.039Z" fill="#301E15"/>
<path d="M996.738 229.128C997.011 230.083 997.019 231.202 995.455 231.846C995.054 230.79 995.522 229.921 996.738 229.128Z" fill="#301E15"/>
<path d="M1000.73 223.139C1000.81 223.539 1000.64 224.093 1000.22 224.83C1000.14 224.439 1000.3 223.866 1000.73 223.139Z" fill="#301E15"/>
<path d="M997.78 228.087C997.818 228.255 997.625 228.53 997.201 228.913C997.163 228.745 997.355 228.47 997.78 228.087Z" fill="#301E15"/>
<path d="M986.475 130.457C986.524 130.427 986.427 130.487 986.475 130.457Z" fill="#36231C"/>
<path d="M987.542 128.479C987.568 128.527 987.517 128.43 987.542 128.479Z" fill="#36231C"/>
<path d="M1156.94 381.834C1159.37 382.635 1160.95 383.812 1160.85 386.188C1160.75 388.525 1158.99 389.72 1157.07 390.382C1148.82 393.223 1140.41 394.326 1131.62 393.458C1102.69 390.604 1077.17 377.98 1051.26 366.234C1031.12 357.104 1012.64 345.466 995.5 331.628C986.832 324.628 978.498 317.206 971.78 308.195C969.761 305.488 968.493 302.493 967.785 299.153C966.548 293.314 968.035 289.019 972.629 286.252C976.675 283.815 984.907 284.625 988.162 287.786C1001.17 300.419 1014.06 313.186 1027.23 325.641C1035.63 333.576 1045.75 339.146 1055.71 344.84C1071.5 353.861 1087.94 361.586 1105.15 367.405C1122 373.104 1139.31 377.356 1156.94 381.834Z" fill="#564740"/>
<path d="M1058.76 289.714C1059.13 290.725 1059.85 291.562 1058.28 291.897C1057.65 291.616 1057.17 291.528 1056.65 291.462C1056.92 291.611 1057.28 291.549 1057.74 291.903C1059.38 293.666 1060.83 295.26 1062.34 296.787C1068.02 302.512 1069.34 306.18 1068.68 314.713C1066.07 312.676 1068.06 308.531 1065.06 306.531C1063.28 311.606 1062.44 317.83 1056.5 318.754C1048.22 320.042 1040.7 317.133 1035.16 310.535C1028.87 303.05 1029.68 296.69 1037.71 290.171C1039.64 289.104 1041.3 289.502 1042.62 289.657C1041.61 289.071 1040.1 289.729 1038.34 289.268C1028.65 288.826 1019.08 290.133 1010.49 284.81C1007.49 282.952 1004.78 280.91 1003.07 277.349C1007.21 278.695 1009.79 282.751 1014.22 284.14C1019.3 285.735 1024.48 286.997 1029.76 286.885C1037.23 286.725 1044.59 287.894 1052.47 288.076C1055.2 286.75 1056.93 287.823 1058.76 289.714Z" fill="#36231C"/>
<path d="M1035.95 227.928C1034.52 233.254 1032.08 234.803 1026.83 234.448C1022.1 234.127 1017.77 232.504 1013.53 230.619C1010.12 229.104 1009.22 224.461 1011.95 220.83C1014.81 217.029 1016.9 211.784 1023.39 213.056C1029.28 214.211 1034.45 220.045 1035.95 227.928Z" fill="#7C685D"/>
<path d="M1191.32 351.906C1199.85 347.824 1211.42 357.456 1210.11 364.795C1209.84 366.288 1209.71 367.711 1208.57 368.859C1205.21 372.246 1194.2 371.887 1190.93 368.254C1187 363.871 1187.01 355.227 1191.32 351.906Z" fill="#7C685D"/>
<path d="M1154.63 320.175C1157.47 322.617 1159.37 325.282 1160.74 328.368C1163.43 334.403 1161.77 337.816 1155.33 339.346C1148.5 340.968 1139.99 334.218 1140.11 327.286C1140.24 319.934 1147.62 316.126 1154.63 320.175Z" fill="#7C685D"/>
<path d="M1123.7 300.21C1128.16 305.74 1128.75 309.318 1125.94 312.433C1123.02 315.671 1113.11 316.213 1109.08 313.354C1105.28 310.657 1103.56 304.416 1105.56 300.357C1106.32 298.82 1107.5 297.395 1109.25 297.283C1114.17 296.969 1119.27 296.07 1123.7 300.21Z" fill="#7C685D"/>
<path d="M1005.05 261.041C1008.5 260.144 1011.45 259.138 1013.84 256.854C1015.41 255.352 1017.28 255.139 1019.39 255.946C1024.21 257.792 1028.16 264.872 1026.85 269.84C1026.01 272.999 1024.15 275.001 1020.51 275.089C1013.68 275.253 1008.01 273.001 1004.37 267.134C1003.4 265.571 1001.44 262.933 1005.05 261.041Z" fill="#7C685D"/>
<path d="M1055.28 224.112C1060.1 223.399 1063.75 225.016 1067.28 227.469C1070.4 229.641 1071.84 232.474 1070.67 235.978C1069.24 240.275 1065.85 242.625 1061.32 242.95C1057.18 243.247 1055.31 240.452 1054.57 237.006C1053.65 232.759 1050.95 228.348 1055.28 224.112Z" fill="#7C685D"/>
<path d="M1059.25 289.796C1057.18 289.474 1055.38 288.911 1053.24 288.212C1052.38 287.241 1051.82 286.419 1051.31 285.569C1047.52 279.309 1048.39 274.902 1053.93 272.201C1058.95 269.748 1063.22 271.005 1065.23 275.529C1067.82 281.342 1065.25 287.627 1059.25 289.796Z" fill="#7C685D"/>
<path d="M1160.15 367.098C1157.96 369.722 1155.33 369.315 1152.97 368.721C1147.6 367.369 1142.8 364.69 1138.3 361.495C1137.23 360.738 1136.06 359.889 1136.52 358.26C1136.98 356.668 1138.14 355.59 1139.69 355.413C1145.49 354.751 1151.39 354.323 1156.79 357.017C1160.75 358.989 1161.78 362.554 1160.15 367.098Z" fill="#7C685D"/>
<path d="M1166.46 339.018C1172.71 340.511 1178.17 343.393 1181.37 349.019C1183.49 352.737 1181.57 356.271 1177.46 357.603C1169.19 360.288 1163.9 355.796 1165.21 347.218C1165.61 344.601 1165.92 341.971 1166.46 339.018Z" fill="#7C685D"/>
<path d="M1139.15 306.75C1136.08 302.848 1134.94 298.76 1136.78 294.482C1137.66 292.443 1147.65 292.187 1150.57 293.837C1154.41 296.003 1154.32 299.227 1152.93 302.84C1150.35 309.508 1144.91 311.215 1139.15 306.75Z" fill="#7C685D"/>
<path d="M1092.93 297.953C1089.21 301.419 1085.93 300.393 1083.28 297.277C1080.9 294.478 1078.73 291.594 1075.25 290.046C1073.4 289.223 1073.01 288.181 1075.05 286.947C1078.67 284.751 1082.63 283.227 1086.79 283.39C1093.74 283.663 1097.14 291.553 1092.93 297.953Z" fill="#7C685D"/>
<path d="M1095.12 249.302C1096.64 253.211 1095.98 256.891 1095.97 260.506C1095.95 263.732 1093.65 265.281 1090.85 265.632C1088.14 265.971 1087.13 263.725 1086.73 261.534C1085.58 255.369 1084.6 249.173 1083.57 242.987C1083.21 240.848 1084.79 241.044 1086.09 240.952C1091.79 240.548 1092.91 245.247 1095.12 249.302Z" fill="#7C685D"/>
<path d="M1174.33 333.911C1170.13 329.902 1169.11 324.633 1171.08 319.641C1171.88 317.606 1173.3 317.913 1174.72 318.501C1178.11 319.907 1181.23 321.795 1183.89 324.355C1185.41 325.822 1187.48 327.18 1186.76 329.729C1185.96 332.547 1183.66 333.949 1181.01 334.722C1178.86 335.352 1176.74 334.884 1174.33 333.911Z" fill="#7C685D"/>
<path d="M1044.69 243.368C1050.37 248.213 1049.41 254.363 1048.48 260.204C1048.03 263.033 1045.29 264.229 1042.24 263.932C1038.95 263.612 1038.84 261.264 1038.97 258.837C1039.15 255.498 1038.66 252.262 1038.14 248.97C1037.41 244.426 1040.05 242.188 1044.69 243.368Z" fill="#7C685D"/>
<path d="M1107.92 341.436C1107.81 340.609 1107.89 339.966 1107.61 339.662C1104.65 336.46 1104.28 333.991 1108.83 331.667C1113.59 329.236 1116.14 329.509 1118.85 333.867C1119.54 334.987 1120.13 336.198 1120.6 337.428C1121.7 340.243 1122.87 343.221 1120.35 345.805C1117.68 348.547 1115.18 346.078 1112.29 345.12C1109.83 344.909 1108.69 343.58 1107.92 341.436Z" fill="#7C685D"/>
<path d="M1229.02 374.01C1222.96 370.696 1219 365.612 1216.64 359.18C1216.11 357.737 1215.52 356.092 1216.86 355.042C1218.4 353.842 1219.62 355.382 1220.66 356.321C1225.44 360.628 1229.46 365.749 1234.84 369.417C1235.74 370.033 1236.83 370.895 1236.5 372.236C1236.1 373.849 1234.63 373.901 1233.3 373.961C1232.15 374.014 1230.99 373.974 1229.41 373.979C1228.98 373.983 1229.01 374.003 1229.02 374.01Z" fill="#7C685D"/>
<path d="M1107.54 341.087C1109.13 342.24 1110.38 343.385 1111.77 344.813C1113.56 349.933 1119.31 350.858 1121.7 355.017C1120.67 355.982 1119.98 355.319 1119.36 354.856C1106.21 344.977 1094 334.095 1084.03 320.91C1082.84 319.341 1082.02 317.497 1081.1 315.312C1088.13 321.465 1093.33 329.708 1100.59 336.047C1102.67 337.865 1104.06 340.624 1107.54 341.087Z" fill="#301E15"/>
<path d="M1109.13 261.33C1115.64 261.529 1117.51 267.446 1121.39 270.68C1123.06 272.064 1120.79 273.717 1118.72 273.966C1111.69 274.812 1106.87 268.767 1109.13 261.33Z" fill="#7C685D"/>
<path d="M1139.19 367.277C1144.71 368.04 1149.2 371.548 1154.01 374.429C1148.78 372.874 1143.83 370.736 1139.19 367.277Z" fill="#301E15"/>
<path d="M1129.78 360.751C1127.03 360.848 1125.08 359.214 1123.58 356.814C1126.08 357.153 1128.01 358.548 1129.78 360.751Z" fill="#301E15"/>
<path d="M1158.98 376.595C1157.92 376.881 1157.2 376.672 1156.88 375.787C1156.84 375.672 1157.2 375.249 1157.4 375.239C1158.25 375.194 1158.97 375.446 1158.98 376.595Z" fill="#301E15"/>
<path d="M1134.18 364.275C1135.5 363.865 1136.75 364.252 1137.82 365.727C1136.51 366.132 1135.25 365.749 1134.18 364.275Z" fill="#301E15"/>
<path d="M1038 289.314C1039.46 289.086 1040.92 289.086 1042.38 289.086C1042.41 289.317 1042.44 289.549 1042.47 289.78C1041.23 289.853 1039.99 289.926 1038.38 289.998C1038 289.997 1038 289.542 1038 289.314Z" fill="#4F4039"/>
<path d="M1130.06 360.938C1131.02 361.364 1131.89 361.878 1132.84 362.742C1131.77 363.095 1130.71 362.898 1129.94 361.488C1129.8 361.191 1129.97 361.023 1130.06 360.938Z" fill="#301E15"/>
<path d="M1161.8 377.295C1162.62 377.146 1163.42 377.171 1163.41 378.001C1163.4 378.631 1162.82 378.603 1162.17 378.156C1161.88 377.834 1161.75 377.682 1161.8 377.295Z" fill="#36231C"/>
<path d="M1078.98 311.711C1078.66 311.556 1078.34 311.075 1078.01 310.297C1078.33 310.462 1078.65 310.923 1078.98 311.711Z" fill="#301E15"/>
<path d="M1069.59 317.845C1069.29 318.097 1069.21 318.274 1069.59 317.845Z" fill="#36231C"/>
<path d="M1080.95 315.031C1080.58 314.61 1080.28 314.128 1080.01 313.29C1080.38 313.388 1080.71 313.841 1081.1 314.569C1081.17 314.844 1081.03 314.97 1080.95 315.031Z" fill="#301E15"/>
<path d="M1185.17 385.231C1185.55 385.172 1186.1 385.33 1186.86 385.705C1187.06 385.922 1186.98 386.015 1186.94 386.061C1186.38 385.887 1185.87 385.667 1185.17 385.231Z" fill="#301E15"/>
<path d="M1185.01 384.996C1185.01 384.991 1184.64 384.761 1184.64 384.761C1184.64 384.761 1184.92 384.791 1184.95 384.903C1184.99 385.015 1185 385.001 1185.01 384.996Z" fill="#301E15"/>
<path d="M1161.84 377.144C1161.99 377.06 1162 377.523 1162 377.754C1161.9 377.733 1161.8 377.48 1161.84 377.144Z" fill="#301E15"/>
<path d="M1138.97 367.023C1138.61 366.959 1138.35 366.78 1138.04 366.298C1137.93 366.079 1138 366.009 1138.03 365.975C1138.39 366.041 1138.65 366.222 1138.96 366.706C1139.06 366.925 1139 366.992 1138.97 367.023Z" fill="#301E15"/>
<path d="M1133.04 362.97C1133.4 363.03 1133.66 363.213 1133.97 363.698C1134.07 363.918 1134 363.992 1133.97 364.027C1133.61 363.969 1133.34 363.791 1133.03 363.309C1132.92 363.092 1133 363.008 1133.04 362.97Z" fill="#301E15"/>
<path d="M1000.54 273.48C1000.57 273.535 1000.51 273.425 1000.54 273.48Z" fill="#301E15"/>
<path d="M1001.95 275.87C1001.86 275.895 1001.77 275.737 1001.67 275.578C1001.76 275.614 1001.86 275.65 1001.95 275.87Z" fill="#301E15"/>
<path d="M1078 309.999L1077.59 309.777C1077.59 309.777 1077.9 309.777 1077.95 309.889C1078 310.002 1078 309.999 1078 309.999Z" fill="#301E15"/>
<path d="M1002.96 277.052C1002.61 276.981 1002.35 276.782 1002.06 276.278C1001.96 276.054 1002 275.999 1002.03 275.974C1002.4 276.029 1002.66 276.21 1002.98 276.708C1003.1 276.925 1003.01 277.006 1002.96 277.052Z" fill="#301E15"/>
<path d="M1079.96 313.034C1079.6 312.958 1079.35 312.762 1079.07 312.257C1078.97 312.037 1079 312 1079.02 311.983C1079.37 312.052 1079.63 312.233 1079.94 312.722C1080.05 312.935 1079.99 313.003 1079.96 313.034Z" fill="#301E15"/>
<path d="M1039.88 294.66C1046.55 291.339 1058.62 295.533 1061.32 301.74C1063.9 307.661 1058.6 314.605 1051.16 314.974C1046.22 315.219 1042.31 313.225 1040.02 308.853C1037.67 304.378 1035.73 299.689 1039.88 294.66Z" fill="#301E15"/>
<path d="M1055.22 291.24C1055.86 291.152 1056.71 291.317 1057.81 291.705C1058.05 291.928 1057.98 292.015 1057.94 292.059C1057.08 291.9 1056.25 291.697 1055.22 291.24Z" fill="#51423B"/>
<path d="M1054.99 291.008C1054.41 290.932 1053.83 290.849 1053.25 290.767C1053.32 290.576 1053.42 290.216 1053.44 290.221C1053.86 290.315 1054.26 290.452 1054.84 290.784C1055.01 290.987 1055 291.002 1054.99 291.008Z" fill="#51423B"/>
<path d="M1047.39 303.707C1044.1 304.522 1042.08 303.483 1041.67 300.412C1041.38 298.175 1042.57 296.524 1044.83 296.061C1047.1 295.595 1048.67 296.734 1049.48 298.828C1050.27 300.864 1049.21 302.298 1047.39 303.707Z" fill="#F2F1F0"/>
<path d="M1047.72 308.709C1047.71 306.299 1048.71 305.364 1050.73 306.289C1051.62 306.7 1052.25 307.668 1051.65 308.687C1050.62 310.422 1049.31 310.815 1047.72 308.709Z" fill="#F2F1F0"/>
</g>
</g>
<defs>
<clipPath id="clip0_217_111">
<rect width="1280" height="640" fill="white"/>
</clipPath>
</defs>
</svg>
