<svg width="1280" height="640" viewBox="0 0 1280 640" fill="none" xmlns="http://www.w3.org/2000/svg">
<path d="M833.739 477.355C834.584 476.286 835.422 476.051 836.693 476.027C839.544 478.071 840.013 481.104 840.869 483.958C844.289 495.368 848.522 506.319 857.691 514.592C863.712 520.025 870.786 523.79 878.119 526.903C891.951 532.774 903.643 541.765 915.131 551.134C916.161 551.973 917.082 552.949 918.192 553.69C919.939 554.855 921.969 554.832 923.198 553.385C924.528 551.818 922.515 550.74 921.597 549.758C915.948 543.711 908.959 539.565 901.683 535.8C899.304 534.568 894.99 533.452 896.227 530.473C897.685 526.96 901.517 529.593 904.179 530.376C913.535 533.128 921.268 538.617 927.711 545.742C933.806 552.482 941.501 552.256 949.298 551.393C953.422 550.937 953.611 549.822 950.761 546.873C945.329 541.25 939.775 535.75 933.656 530.853C932.111 529.616 930.44 528.441 929.656 526.091C929.634 525.499 929.674 525.262 929.954 524.755C932.898 523.122 934.95 524.794 937.137 525.946C945.416 530.303 951.285 537.446 957.878 543.762C959.968 545.765 961.784 548.45 965.599 547.928C965.69 545.504 964.114 543.917 962.879 542.296C951.477 527.326 936.785 516.278 920.471 507.284C911.448 502.308 901.761 498.546 893.369 492.411C883.195 484.972 878.233 474.136 874.078 462.787C873.676 461.689 873.758 460.478 874.774 459.19C875.157 457.449 875.866 456.442 877.702 456.053C881.861 464.029 884.485 472.391 889.865 479.983C894.632 486.71 900.836 490.28 907.165 493.821C919.763 500.868 932.868 506.874 944.467 515.762C955.347 524.1 965.078 533.208 971.687 545.343C972.928 547.621 974.012 550.262 972.3 552.363C970.648 554.391 968.135 555.376 965.112 554.311C962.93 553.543 960.469 553.719 958.285 554.8C950.798 558.509 942.902 559.218 935.042 556.879C930.062 555.398 927.617 559.514 923.545 560.555C927.319 565.531 931.401 570.132 933.915 575.789C936.501 581.606 935.13 584.048 928.826 583.948C924.273 583.876 919.886 584.194 915.738 586.209C909.135 589.415 902.394 587.718 895.694 586.695C894.389 586.496 893.201 585.865 891.895 586.735C884.13 591.91 874.955 593.114 866.231 593.664C849.03 594.75 831.591 595.332 814.919 589.384C803.197 585.202 790.91 582.715 779.582 577.347C776.575 575.923 773.568 574.146 771.236 572.171C768.945 570.232 767.935 566.267 767.278 563.006C765.075 552.074 764.237 541.015 766.238 529.939C767.463 523.161 767.142 516.404 766.277 509.316C765.692 505.045 764.286 501.153 763.709 497.515C763.013 493.128 762.001 488.808 761.23 484.425C760.688 481.341 759.65 478.521 758.889 475.298C760.411 475.298 761.848 475.591 763.648 475.946C765.756 477.858 767.029 479.974 767.638 482.464C771.653 498.874 774.426 515.353 772.292 532.39C771.175 541.305 771.137 550.313 772.922 559.238C774.201 565.63 777.583 570.298 783.742 572.526C808.527 581.489 833.31 590.512 860.426 588.026C867.739 587.356 874.957 586.152 882.077 584.41C886.112 583.424 886.498 581.968 883.433 579.187C877.86 574.129 871.72 569.852 864.97 566.466C863.19 565.573 861.415 564.618 859.808 563.426C858.755 562.645 857.453 561.72 858.114 560.204C858.743 558.761 860.316 558.788 861.623 559.027C866.249 559.874 870.583 561.587 874.72 563.789C880.362 566.792 885.196 570.816 889.671 575.367C895.583 581.38 906.371 583.139 915.089 579.419C909.569 573.869 904.41 568.277 898.577 563.345C896.67 561.734 894.646 560.237 893.216 558.143C892.638 557.297 892.219 556.3 892.79 555.335C893.493 554.144 894.707 554.178 895.898 554.422C897.395 554.728 898.647 555.58 899.976 556.27C907.703 560.278 912.929 567.158 919.196 572.85C921.358 574.813 923.585 579.376 926.512 576.978C928.463 575.38 924.719 571.779 922.914 569.664C911.992 556.872 898.96 546.567 884.32 538.354C877.062 534.283 869.436 530.898 862.131 526.877C851.1 520.804 843.878 511.6 838.882 500.324C836.583 495.133 834.52 489.864 833.151 484.352C832.596 482.118 831.841 479.796 833.739 477.355Z" fill="#36231C"/>
<path d="M519.786 484.939C521.116 484.121 522.255 483.598 523.711 483.04C527.321 487.985 530.363 493.088 533.232 498.348C535.701 502.872 541.103 505.027 545.468 507.518C556.385 513.746 568.243 518.314 578.372 525.955C580.031 527.206 582.381 526.563 583.862 528.679C586.876 530.931 589.369 533.281 591.999 535.475C598.765 541.118 604.26 547.968 610.299 554.284C613.437 557.565 614.651 562.279 614.64 566.758C614.633 569.398 611.526 570.091 609.169 569.932C603.543 569.551 598.285 570.818 593.12 572.809C587.363 575.03 581.664 573.094 575.978 572.421C574.245 572.216 572.656 571.978 571.2 572.96C566.075 576.42 559.983 576.709 554.297 578.333C555.228 581.526 558.823 582.288 560.654 585.012C563.138 588.706 564.383 592.72 565.681 596.754C566.797 600.226 562.813 603.76 558.732 602.65C554.701 601.555 551.269 602.205 547.729 604.077C542.282 606.957 536.323 606.537 530.635 605.533C527.132 604.915 523.871 605.117 520.879 606.302C508.304 611.281 495.035 612.486 481.835 612.767C472.494 612.967 462.962 612.204 453.741 609.788C440.068 606.206 426.735 601.558 413.407 596.92C404.828 593.935 399.428 588.243 397.585 578.785C395.907 570.174 396.18 561.606 396.026 552.467C398.527 542.66 398.57 533.316 396.791 523.934C395.896 519.22 394.936 514.517 393.978 509.408C395.025 509.001 396.098 508.995 397.574 508.989C400.815 510.342 401.043 513.112 401.617 515.696C404.576 529.028 404.479 542.442 402.5 555.869C401.311 563.935 402.532 571.777 404.242 579.592C405.453 585.124 409.182 588.822 414.227 590.595C431.476 596.657 448.587 603.77 466.881 605.601C482.238 607.137 497.814 606.847 512.933 602.448C516.857 601.306 517.102 600.645 514.213 597.62C509.086 592.253 502.51 588.898 496.346 584.966C494.102 583.535 489.894 582.304 491.358 579.282C492.901 576.097 496.773 578.222 499.464 579.197C508.255 582.382 515.442 587.978 521.833 594.674C525.826 598.857 536.746 601.203 542.19 599.255C545.128 598.203 544.872 596.658 543.253 594.839C539.823 590.986 536.149 587.383 532.21 584.025C529.346 581.583 525.786 579.737 524.308 575.512C524.328 574.882 524.381 574.634 524.634 574.07C527.35 572.33 529.322 573.897 531.314 575.011C538.703 579.143 544.56 585.047 550.026 591.386C551.332 592.901 552.532 594.533 554.337 595.497C555.374 596.05 556.734 596.617 557.631 595.789C558.685 594.815 557.688 593.573 557.084 592.669C552.901 586.41 548.089 580.692 542.333 575.796C528.665 564.17 513.78 554.412 497.34 547.211C478.214 538.833 469.852 522.466 464.333 503.845C464 502.721 463.889 501.545 464.776 500.18C465.925 498.984 467.11 499.018 468.636 498.996C470.634 500.335 471.221 502.25 471.836 504.164C473.315 508.775 475.29 513.18 477.3 517.581C482.069 528.027 489.532 535.754 500.028 540.465C517.016 548.09 532.699 557.81 546.785 569.984C550.531 573.222 554.221 572.104 558.036 571.052C560.499 570.372 564.321 571.089 565.005 568.275C565.66 565.58 562.187 564.12 560.29 562.348C555.115 557.515 548.769 554.45 542.738 550.914C541.588 550.241 540.362 549.689 539.33 548.832C538.554 548.189 537.661 547.414 537.954 546.361C538.318 545.054 539.619 544.841 540.811 544.799C542.507 544.739 544.093 545.306 545.676 545.828C554.4 548.703 562.306 553.163 568.134 560.229C574.435 567.87 582.522 567.656 590.917 566.884C594.483 566.556 594.9 565.141 592.344 562.529C587.451 557.531 582.677 552.405 577.182 548.022C575.259 546.487 573.118 545.034 572.381 542.072C572.465 541.483 572.548 541.257 572.889 540.778C575.89 539.461 577.952 541.117 580.101 542.31C587.068 546.177 592.143 552.227 597.74 557.674C599.646 559.529 601.367 561.615 603.722 562.929C604.673 563.46 605.899 564.378 606.876 563.191C607.58 562.336 606.873 561.284 606.358 560.447C604.608 557.605 602.622 554.921 600.334 552.497C587.294 538.684 572.562 527.186 555.067 519.458C549.423 516.966 544.164 513.734 538.826 510.66C530.409 505.814 525.076 498.248 520.558 489.974C519.77 488.53 518.969 487.005 519.786 484.939Z" fill="#36231C"/>
<path d="M327.987 515.006C327.877 514.88 327.789 514.736 327.702 514.591C327.785 514.627 327.869 514.664 328 514.822C328.048 514.942 328.009 514.986 327.987 515.006Z" fill="black"/>
<path d="M833.575 477.051C837.591 499.336 846.635 517.994 868.28 528.067C882.818 534.833 896.726 542.601 908.982 553.025C916.336 559.281 923.457 565.833 928.485 574.236C929.426 575.808 931.665 577.955 929.87 579.422C928.03 580.925 924.92 580.601 922.829 579.074C920.568 577.422 918.698 575.22 916.724 573.195C910.566 566.878 904.574 560.366 896.508 556.348C895.668 555.93 894.894 555.087 893.427 555.825C895.692 558.733 898.716 560.634 901.3 563.017C906.559 567.869 911.457 573.111 916.625 578.065C918.926 580.271 918.248 581.548 915.563 581.949C905.559 583.446 895.572 585.6 887.559 576.149C880.146 567.405 870.259 562.565 858.991 560.54C865.553 564.907 872.985 567.865 879.032 573.019C881.92 575.48 885.222 577.431 887.509 580.648C889.467 583.4 888.908 584.81 885.814 585.585C877.912 587.564 869.928 589.34 861.819 589.892C843.731 591.122 825.975 589.268 808.77 583.115C800.474 580.148 792.007 577.659 783.701 574.717C776.351 572.114 772.092 566.943 770.869 559.03C769.361 549.277 769.658 539.626 770.669 529.849C771.89 518.053 771.078 506.27 768.367 494.678C766.969 488.702 765.472 482.75 764.015 476.397C785.94 482.996 808.038 482.117 830.221 477.435C831.187 477.231 832.181 477.162 833.575 477.051Z" fill="#51423B"/>
<path d="M524.78 573.936C526.701 578.338 530.917 580.101 534.05 582.949C538.735 587.207 543.335 591.496 547.216 596.536C548.622 598.362 548.585 599.131 546.348 600.115C538.952 603.371 531.674 601.555 524.365 599.956C522.925 599.642 522.401 598.287 521.515 597.315C513.451 588.461 504.244 581.462 491.692 579.972C494.854 581.836 498.052 583.641 501.169 585.576C506.82 589.083 512.577 592.462 517.05 597.541C518.137 598.776 519.731 599.933 519.242 601.753C518.743 603.61 516.835 603.633 515.206 604.093C499.942 608.404 484.321 608.576 468.687 607.91C459.171 607.504 450.078 604.516 441.028 601.758C432.29 599.096 423.644 596.122 415.007 593.144C407.697 590.624 403.195 585.81 401.637 577.88C399.686 567.944 399.594 558.027 401.165 548.177C403.259 535.05 400.99 522.398 398.132 509.348C420.298 507.859 442.298 504.357 464.59 499.936C468.775 512.904 473.233 525.557 483.008 535.511C487.504 540.088 492.994 543.232 498.744 545.867C517.161 554.302 534.013 565.098 548.572 579.217C553.068 583.576 557.291 588.35 560.075 594.128C560.654 595.329 561.404 596.621 560.633 597.902C559.69 599.467 558.283 598.248 557.051 598.25C553.231 598.255 551.18 595.765 549.026 593.127C542.565 585.213 535.198 578.353 525.406 573.988C525.057 573.921 524.668 573.756 524.78 573.936Z" fill="#51423B"/>
<path d="M519.578 484.712C526.843 502.877 542.147 511.401 558.582 519.161C577.909 528.287 594.508 541.171 607.33 558.534C608.019 559.468 608.636 560.466 609.182 561.49C609.817 562.68 610.416 564.041 609.433 565.229C608.471 566.392 606.972 566.028 605.671 565.882C603.002 565.582 601.28 563.752 599.454 562.013C593.088 555.951 587.734 548.761 579.903 544.327C577.883 543.184 575.804 542.146 573.33 541.078C576.142 546.078 581.688 548.589 585.542 552.93C587.86 555.542 590.602 557.78 592.881 560.421C594.51 562.31 598.315 563.74 597.041 566.407C595.914 568.765 592.235 568.971 589.355 569.013C586.524 569.055 583.691 569.054 580.861 568.982C576.393 568.868 572.564 567.61 569.438 563.993C562.092 555.491 553.051 549.468 542.077 546.568C541.131 546.318 540.22 545.758 538.938 546.503C545.103 550.216 551.226 553.705 557.131 557.53C561.023 560.05 564.521 563.111 567.444 566.811C569.248 569.094 568.837 570.452 566.165 571.092C561.16 572.291 556.11 573.298 551.101 574.476C549.531 574.845 548.61 574.035 547.59 573.135C533.263 560.505 517.441 550.178 499.932 542.52C481.208 534.33 473.651 518.133 468.992 499.396C486.159 495.809 502.468 489.584 519.578 484.712Z" fill="#51423B"/>
<path d="M930.371 524.997C937.9 532.34 946.358 539.082 953.643 547.096C956.959 550.745 956.998 551.68 952.167 552.651C942.533 554.589 933.273 555.025 925.768 546.388C918.274 537.763 908.527 532.528 896.616 530.13C897.812 532.513 899.863 532.845 901.432 533.638C909.643 537.789 917.57 542.35 923.787 549.295C925.116 550.78 928.711 552.382 925.808 554.715C923.621 556.473 920.086 558.288 917.196 555.529C911.032 549.646 904.129 544.743 897.273 539.759C891.74 535.736 885.805 532.473 879.575 529.615C867.434 524.047 855.302 518.307 848.103 506.11C842.722 496.994 839.418 487.067 837.041 476.411C850.554 472.765 862.612 466.302 874.648 458.965C879.314 475.814 888.015 489.398 904.262 497.065C919.956 504.472 935.109 512.718 948.288 524.174C955.334 530.298 962.02 536.789 966.851 544.884C967.79 546.458 969.82 548.356 968.219 550.222C966.883 551.78 964.829 549.867 963.035 549.922C960.778 549.99 959.604 548.093 958.193 546.725C951.053 539.8 944.793 531.88 935.729 527.144C934.111 526.299 932.672 525.121 930.371 524.997Z" fill="#51423B"/>
<path d="M584.01 529.012C584.017 529.021 583.799 529.446 583.799 529.446C583.799 529.446 583.772 529.123 583.878 529.056C583.984 528.99 584.002 529.003 584.01 529.012Z" fill="black"/>
</svg>
