<svg width="1280" height="640" viewBox="0 0 1280 640" fill="none" xmlns="http://www.w3.org/2000/svg">
<path d="M1034.83 215.675L1034.07 216.149C1028.72 214.663 1023.38 213.197 1017.92 212.092C1013.48 211.194 1011.04 212.464 1009.26 216.413C1008.03 219.118 1006.61 221.817 1004.32 223.847C1003.56 224.513 1002.63 224.951 1001.37 223.943C1000.13 220.972 1001.43 218.723 1002.55 216.526C1013.13 195.764 1017.84 173.521 1020.01 150.485C1021.24 137.447 1020.92 124.588 1018.81 111.735C1017.65 104.619 1015.57 97.8021 1011.08 91.9497C1009.85 90.3556 1008.79 88.6371 1009.41 86.0882C1014.18 87.1364 1017.28 90.2579 1019.09 94.5248C1025.14 108.805 1025.93 123.913 1025.85 139.14C1025.85 139.45 1025.9 139.815 1026.07 140.049C1026.15 140.161 1026.57 140.027 1026.94 139.745C1027.15 139.26 1027.27 139.035 1027.6 139.127C1042.07 126.158 1054 111.309 1059.76 92.2538C1060.58 89.5617 1061.79 86.9888 1062.86 84.3756C1064.14 81.2394 1066.39 81.5502 1067.45 84C1071.45 93.274 1076.37 102.423 1076.77 112.737C1077.89 142.276 1068.75 168.94 1053.3 193.765C1049.22 200.329 1040.68 209.782 1034.83 215.675Z" fill="#301E15"/>
<path d="M975.111 246.34C967.771 244.549 964.6 239.07 962.243 233.094C957.402 220.821 956.26 207.961 957.176 194.917C957.946 183.949 960.417 173.296 964.077 162.533C964.248 159.997 964.812 158.007 965.683 155.978C974.805 134.726 985.463 114.268 997.244 94.382C998.518 92.2316 999.446 89.9029 1000.9 87.4586C1001.19 87.2205 1001.24 87.2046 1001.25 87.1786C1002.77 85.6183 1002.51 82.517 1005.9 82.4597C1006.99 82.9754 1007.71 83.3656 1008.61 84.019C1013.92 91.4959 1018.24 99.0759 1019.8 107.972C1023.01 126.181 1022.57 144.38 1019.61 162.548C1016.36 182.503 1011.64 202.018 1001.64 219.873C1001.25 220.575 1001.17 221.45 1001 222.905C1001.08 223.952 1001.04 224.332 1000.84 224.98C1000.64 225.425 1000.54 225.597 1000.28 226.006C999.848 226.543 999.638 226.872 999.356 227.512C999.155 227.982 999.063 228.167 998.812 228.624C998.536 229.072 998.417 229.25 997.873 229.918C996.778 231.049 996.432 231.871 995.995 233.058C992.597 239.122 990.028 245.458 982.709 247.42C980.106 248.117 977.578 249.076 975.111 246.34Z" fill="#564740"/>
<path d="M1000.88 87.2681C1000.04 92.8934 996.502 97.4185 993.799 102.317C983.139 121.639 973.756 141.58 964.39 161.905C963.854 161.618 963.551 161.073 963.112 160.249C965.084 151.92 969.117 144.65 972.536 137.164C979.439 122.048 987.76 107.662 996.728 93.6774C998.071 91.5843 997.31 88.2036 1000.88 87.2681Z" fill="#301E15"/>
<path d="M1006.2 82.2796C1003.79 83.0066 1003.62 85.7642 1001.56 87.0284C1001.06 84.8653 1002.38 83.109 1003.51 81.3838C1004.57 79.7699 1005.62 80.1998 1006.2 82.2796Z" fill="#301E15"/>
<path d="M1026.99 137.558C1026.98 138.003 1026.58 138.023 1026.39 138.034C1026.2 135.16 1026.2 132.274 1026.2 129.388C1026.47 129.379 1026.74 129.371 1027.01 129.363C1027.01 131.946 1027.01 134.53 1026.99 137.558Z" fill="#29150D"/>
<path d="M1037.85 132.441C1050.15 118.655 1057.26 102.399 1064.3 84.7678C1068.13 92.0666 1071.48 97.9375 1072.31 105.579C1074.36 124.408 1070.94 142.274 1064.87 159.805C1059.74 174.648 1052.04 188.205 1042.3 200.928C1038.57 197.821 1039.36 193.226 1039.21 189.384C1038.57 173.006 1037.34 156.656 1036.91 140.271C1036.84 137.776 1036.89 135.291 1037.85 132.441Z" fill="#51423B"/>
<path d="M1037.63 132.139C1038.85 132.839 1039.06 133.98 1038.98 135.165C1038.33 145.302 1040.06 155.344 1040.14 165.473C1040.22 177.042 1041.33 188.604 1042 200.637C1040.57 204.64 1037.51 206.816 1035.04 209.49C1033.82 210.812 1032.49 210.536 1030.94 210.201C1025.58 209.053 1020.38 207.225 1014.88 206.716C1012.19 206.467 1011.32 205.152 1012.32 202.324C1018.61 184.538 1022.05 166.125 1023.98 147.408C1024.17 145.577 1025.12 144.347 1026.32 143.165C1030 139.547 1033.67 135.927 1037.63 132.139Z" fill="#48372F"/>
<path d="M977.558 154.001C979.591 155.872 979.026 158.131 978.957 160.214C978.639 169.862 979.571 179.364 981.955 188.716C984.593 199.058 993.692 201.604 1001.33 194.195C1002.86 192.712 1004.08 190.841 1006.56 190.009C1008.58 192.439 1006.28 194.27 1005.71 196.351C1005.15 198.4 1003.68 200.154 1003.22 202.697C1003.01 203.031 1003 202.995 1003.02 202.996C1002.1 203.988 1002.01 205.371 1001.2 206.775C1001.01 207.037 1000.99 206.995 1001.01 206.993C1000.59 207.411 1000.48 207.932 1000.78 208.725C998.152 215.24 995.347 221.546 992.53 227.848C991.242 230.73 990.03 234.152 986.503 234.452C982.821 234.765 980.842 231.681 979.057 228.478C978.595 227.653 978.516 227.037 978.162 226.217C977.964 225.984 978.014 225.988 978.013 226.013C977.791 225.791 977.562 225.553 977.142 225.155C976.96 224.987 977.009 224.994 977.005 225.018C976.581 224.588 976.514 223.99 976.154 223.211C975.964 222.987 976.013 222.992 976.004 223.015C975.578 222.585 975.514 221.988 975.155 221.212C974.965 220.989 975.011 220.994 975.001 221.015C967.086 198.42 970.003 176.145 977.558 154.001Z" fill="#48372F"/>
<path d="M978.02 153.6C974.09 162.784 972.707 172.262 972.266 181.617C971.691 193.832 970.379 206.289 974.824 218.236C975.047 218.836 974.954 219.554 975 220.627C969.405 211.27 968.378 200.562 969.146 189.696C970.013 177.425 971.895 165.271 975.988 153.578C976.37 152.488 976.928 151.46 977.71 150.207C978.021 151.074 978.026 152.138 978.02 153.6Z" fill="#301E15"/>
<path d="M1003.28 202.812C1002.79 198.449 1005.78 194.864 1006.87 190.31C1013.67 174.101 1013.35 157.337 1013.17 140.588C1016.62 163.814 1016.4 178.235 1003.28 202.812Z" fill="#301E15"/>
<path d="M977.984 149.985C977.96 148.447 977.778 146.863 979.339 145.658C980.381 147.403 979.126 148.435 978.276 149.812C978.017 150.011 977.995 149.995 977.984 149.985Z" fill="#301E15"/>
<path d="M1001.3 206.863C1000.95 205.595 1001.13 204.247 1002.73 203.157C1003.05 204.421 1002.71 205.709 1001.3 206.863Z" fill="#301E15"/>
<path d="M999.667 225.039C999.948 226.12 999.46 227.032 998.27 227.868C997.944 226.815 998.086 225.701 999.667 225.039Z" fill="#301E15"/>
<path d="M996.739 229.128C997.011 230.083 997.019 231.202 995.455 231.846C995.054 230.79 995.522 229.921 996.739 229.128Z" fill="#301E15"/>
<path d="M981.372 140.33C981.517 139.564 981.873 138.752 982.275 138.729C982.885 138.693 982.703 139.324 982.243 139.875C981.908 140.222 981.756 140.429 981.372 140.33Z" fill="#36231C"/>
<path d="M1000.98 208.612C1000.31 208.497 1000.08 207.972 1000.83 207.141C1001.03 207.423 1001.01 207.856 1000.98 208.612Z" fill="#301E15"/>
<path d="M974.998 221.287C975.288 221.472 975.612 221.954 975.965 222.738C975.674 222.554 975.353 222.069 974.998 221.287Z" fill="#301E15"/>
<path d="M980.811 142.119C980.911 142.424 980.784 142.821 980.656 143.218C980.015 142.927 980.353 142.565 980.811 142.119Z" fill="#301E15"/>
<path d="M977.999 226.291C978.286 226.495 978.609 227.006 978.967 227.831C978.68 227.629 978.357 227.114 977.999 226.291Z" fill="#301E15"/>
<path d="M981.085 140.344C981.14 140.024 981.599 140.016 981.829 140.016C981.873 140.565 981.687 141.115 981.27 141.845C981.039 142.027 980.997 141.995 980.977 141.977C980.981 141.527 981.006 141.095 981.085 140.344Z" fill="#301E15"/>
<path d="M1000.73 223.139C1000.81 223.539 1000.64 224.093 1000.22 224.83C1000.14 224.439 1000.3 223.866 1000.73 223.139Z" fill="#301E15"/>
<path d="M976 223.284C976.286 223.472 976.609 223.956 976.966 224.742C976.679 224.555 976.358 224.068 976 223.284Z" fill="#301E15"/>
<path d="M997.78 228.087C997.818 228.255 997.625 228.53 997.201 228.913C997.163 228.745 997.355 228.47 997.78 228.087Z" fill="#301E15"/>
<path d="M977.082 225.212C977.225 225.192 977.489 225.397 977.882 225.82C977.742 225.838 977.472 225.637 977.082 225.212Z" fill="#301E15"/>
<path d="M986.475 130.457C986.427 130.486 986.524 130.427 986.475 130.457V130.457Z" fill="#36231C"/>
<path d="M983.469 136.447C983.412 136.484 983.525 136.41 983.469 136.447V136.447Z" fill="#36231C"/>
<path d="M987.542 128.479C987.517 128.43 987.568 128.527 987.542 128.479V128.479Z" fill="#36231C"/>
<path d="M984.547 134.463C984.516 134.406 984.578 134.52 984.547 134.463V134.463Z" fill="#36231C"/>
<path d="M985.472 132.452C985.419 132.486 985.525 132.418 985.472 132.452V132.452Z" fill="#36231C"/>
<path d="M1185.17 385.231C1185.55 385.172 1186.1 385.33 1186.86 385.705C1187.06 385.922 1186.98 386.015 1186.94 386.061C1186.38 385.887 1185.87 385.667 1185.17 385.231Z" fill="#301E15"/>
<path d="M1185.01 384.996C1185.01 384.99 1184.64 384.761 1184.64 384.761C1184.64 384.761 1184.92 384.791 1184.95 384.903C1184.99 385.015 1185 385.001 1185.01 384.996Z" fill="#301E15"/>
<path d="M1000.54 273.48C1000.51 273.425 1000.57 273.535 1000.54 273.48V273.48Z" fill="#301E15"/>
<path d="M1001.95 275.87C1001.86 275.895 1001.77 275.737 1001.67 275.578C1001.76 275.614 1001.86 275.65 1001.95 275.87Z" fill="#301E15"/>
</svg>
