<svg width="1280" height="640" viewBox="0 0 1280 640" fill="none" xmlns="http://www.w3.org/2000/svg">
<path d="M1058.76 289.714C1059.13 290.725 1059.85 291.562 1058.28 291.897C1057.65 291.616 1057.17 291.528 1056.65 291.462C1056.92 291.611 1057.28 291.549 1057.74 291.903C1059.38 293.666 1060.83 295.26 1062.34 296.787C1068.02 302.512 1069.34 306.18 1068.68 314.713C1066.07 312.676 1068.06 308.531 1065.06 306.531C1063.28 311.606 1062.44 317.83 1056.5 318.754C1048.22 320.042 1040.7 317.133 1035.16 310.535C1028.87 303.05 1029.68 296.69 1037.71 290.171C1039.64 289.104 1041.3 289.502 1042.62 289.657C1041.61 289.071 1040.1 289.729 1038.34 289.268C1028.65 288.826 1019.08 290.133 1010.49 284.81C1007.49 282.952 1004.78 280.91 1003.07 277.349C1007.21 278.695 1009.79 282.751 1014.22 284.14C1019.3 285.735 1024.48 286.997 1029.76 286.885C1037.23 286.725 1044.59 287.894 1052.47 288.076C1055.2 286.75 1056.93 287.823 1058.76 289.714Z" fill="#36231C"/>
<path d="M1038 289.314C1039.46 289.086 1040.92 289.086 1042.38 289.086C1042.41 289.317 1042.44 289.549 1042.47 289.78C1041.23 289.853 1039.99 289.926 1038.38 289.998C1038 289.997 1038 289.542 1038 289.314Z" fill="#4F4039"/>
<path d="M1069.59 317.845C1069.21 318.274 1069.29 318.097 1069.59 317.845V317.845Z" fill="#36231C"/>
<path d="M1000.54 273.48C1000.51 273.425 1000.57 273.535 1000.54 273.48V273.48Z" fill="#301E15"/>
<path d="M1001.95 275.87C1001.86 275.895 1001.77 275.737 1001.67 275.578C1001.76 275.614 1001.86 275.65 1001.95 275.87Z" fill="#301E15"/>
<path d="M1002.96 277.052C1002.61 276.981 1002.35 276.782 1002.06 276.278C1001.96 276.054 1002 275.999 1002.03 275.974C1002.4 276.029 1002.66 276.21 1002.98 276.708C1003.1 276.925 1003.01 277.006 1002.96 277.052Z" fill="#301E15"/>
<path d="M1039.88 294.66C1046.55 291.339 1058.62 295.533 1061.32 301.74C1063.9 307.661 1058.6 314.605 1051.16 314.974C1046.22 315.219 1042.31 313.225 1040.02 308.853C1037.67 304.378 1035.73 299.689 1039.88 294.66Z" fill="#301E15"/>
<path d="M1055.22 291.24C1055.86 291.152 1056.71 291.317 1057.81 291.705C1058.05 291.928 1057.98 292.015 1057.94 292.059C1057.08 291.9 1056.25 291.697 1055.22 291.24Z" fill="#51423B"/>
<path d="M1054.99 291.008C1054.41 290.932 1053.83 290.849 1053.25 290.767C1053.32 290.576 1053.42 290.216 1053.44 290.221C1053.86 290.315 1054.26 290.452 1054.84 290.784C1055.01 290.987 1055 291.002 1054.99 291.008Z" fill="#51423B"/>
<path d="M1047.39 303.707C1044.1 304.522 1042.08 303.483 1041.67 300.412C1041.38 298.175 1042.57 296.524 1044.83 296.061C1047.1 295.595 1048.67 296.734 1049.48 298.828C1050.27 300.864 1049.21 302.298 1047.39 303.707Z" fill="#F2F1F0"/>
<path d="M1047.72 308.71C1047.71 306.3 1048.71 305.364 1050.73 306.289C1051.62 306.7 1052.25 307.668 1051.65 308.687C1050.62 310.422 1049.31 310.816 1047.72 308.71Z" fill="#F2F1F0"/>
</svg>
