<svg width="388" height="279" viewBox="0 0 388 279" fill="none" xmlns="http://www.w3.org/2000/svg">
<path d="M359.179 279H28.8213C28.8213 266.991 15.9166 257.254 0 257.254V21.7458C15.9166 21.7458 28.8213 12.0091 28.8213 0H359.179C359.179 12.0091 372.083 21.7458 388 21.7458V257.254C372.083 257.254 359.179 266.991 359.179 279Z" fill="#BCB871" fill-opacity="0.4"/>
<path d="M356.843 2.5C357.62 8.42204 361.117 13.601 366.115 17.3721C371.238 21.2371 378.029 23.7141 385.5 24.1689V254.83C378.029 255.285 371.238 257.763 366.115 261.628C361.117 265.399 357.62 270.578 356.843 276.5H31.1572C30.3804 270.578 26.8829 265.399 21.8848 261.628C16.7621 257.763 9.97131 255.285 2.5 254.83V24.1689C9.97129 23.7141 16.7621 21.2371 21.8848 17.3721C26.8829 13.601 30.3804 8.42204 31.1572 2.5H356.843Z" stroke="#382302" stroke-opacity="0.5" stroke-width="5"/>
</svg>
