<svg width="175" height="58" viewBox="0 0 175 58" fill="none" xmlns="http://www.w3.org/2000/svg">
<path d="M167.795 58H7.20522C7.20522 53.6026 3.97885 50.0368 0 50.0368V7.96315C3.97885 7.96315 7.20522 4.39739 7.20522 0H167.795C167.795 4.39739 171.021 7.96315 175 7.96315V50.0368C171.021 50.0368 167.795 53.6026 167.795 58Z" fill="#2F1E02" fill-opacity="0.8"/>
<path d="M166.406 1.5C166.985 5.40407 169.782 8.62884 173.5 9.32227V48.6768C169.782 49.3701 166.985 52.5959 166.406 56.5H8.59375C8.01539 52.5959 5.21823 49.3701 1.5 48.6768V9.32227C5.21814 8.62884 8.0154 5.40407 8.59375 1.5H166.406Z" stroke="#915E0A" stroke-opacity="0.7" stroke-width="3"/>
</svg>
