<svg width="1280" height="640" viewBox="0 0 1280 640" fill="none" xmlns="http://www.w3.org/2000/svg">
<path d="M328.35 514.918C306.462 526.492 285.582 539.386 261.243 544.396C246.332 547.465 231.328 549.739 216.139 551.181C202.006 552.523 187.915 551.812 173.816 551.847C168.574 551.86 163.284 550.803 157.442 550.985C149.754 549.952 142.606 548.874 135.427 548.056C113.387 545.544 91.417 542.708 70.0137 536.54C58.9721 533.359 47.7572 531.162 36.1544 532.001C30.3507 532.421 24.6039 533.006 19.3272 535.815C13.3336 539.005 7.39936 539.594 1.35909 535.022C1 532.629 1 530.259 1 527.444C4.04201 527.282 4.27978 524.23 5.75268 522.771C14.3486 514.253 25.2682 511.468 36.6502 510.075C55.1904 507.807 73.8798 508.494 92.4231 509.284C108.05 509.949 123.709 510.636 139.234 509.763C172.259 507.908 205.007 503.803 234.588 487.134C247.444 479.889 260.333 472.598 269.3 460.247C270.904 458.038 270.868 454.697 273.986 453.274C276.355 451.621 277.452 453.251 278.703 455.234C278.966 456.123 278.995 456.643 278.836 457.533C275.512 461.645 272.62 465.662 269.223 469.725C264.303 474.546 258.951 478.299 253.672 482.695C249.225 485.122 245.429 487.968 240.852 490.188C232.995 495.017 224.866 498.482 216.449 502.21C212.701 503.455 209.449 505.017 205.495 505.633C199.641 507.841 193.936 509.014 187.733 509.781C184.461 510.48 181.654 511.501 178.238 511.563C173.193 512.603 168.522 513.366 163.358 513.645C159.456 513.83 156.173 515.492 152.161 514.925C145.171 516.281 138.531 516.182 131.435 515.969C127.917 515.606 124.856 516.414 121.334 515.854C115.296 516.146 109.711 516.208 103.664 515.91C100.431 515.61 97.6731 516.364 94.4478 515.879C88.3232 514.663 82.5585 515.325 76.3985 514.853C72.9042 514.78 69.8722 515.31 66.3657 514.958C60.1474 514.96 54.3824 515.345 48.1825 514.864C44.6162 514.508 41.7433 516.47 38.1819 515.798C29.6166 516.988 21.665 518.89 14.3676 523.802C11.0793 525.558 7.14285 528.228 8.72253 531.022C10.3457 533.893 14.2981 531.055 17.387 529.498C24.1168 527.332 30.5301 525.524 37.7634 526.288C40.7504 525.8 43.3198 525.85 46.3143 526.235C51.9346 525.618 56.827 527.212 62.1879 528.405C66.0287 529.151 69.4367 529.914 73.0658 531.367C79.8768 532.963 86.379 534.15 93.0776 536.162C96.5219 535.972 99.3593 537.133 102.727 537.542C109.172 538.302 115.129 539.509 121.542 540.485C125.601 540.585 129.117 541.437 133.061 542.19C140.77 541.823 147.852 543.576 155.467 544.186C159.473 543.683 162.802 545.377 166.775 545.262C174.002 545.098 180.84 543.933 187.948 546.161C192.854 545.63 197.325 546.638 201.782 546.453C216.871 545.826 231.758 543.418 246.636 540.977C279.74 535.548 308.883 521.404 335.061 500.762C336.646 499.513 338.497 498.744 340.466 497.359C342.759 496.851 344.27 497.364 345.117 499.63C342.627 502.286 340.38 504.792 337.69 506.662C334.318 509.008 331.586 511.949 328.35 514.918Z" fill="#36231C"/>
<path d="M289.657 470.395C305.235 482.074 322.203 491.022 340.764 497.805C333.218 506.238 323.627 512.227 313.907 517.938C298.822 526.8 283.143 534.481 266.083 538.803C252.096 542.346 237.927 544.833 223.508 546.175C212.261 547.223 201.068 548.465 189.28 547.845C178.756 539.176 176.53 527.511 176.053 515.179C175.989 513.519 176.261 511.873 177.779 510.265C180.841 509.383 183.624 508.812 186.798 508.238C189.161 510.145 188.644 512.496 188.324 514.792C186.841 525.413 191.675 533.75 198.006 541.525C200.607 544.72 204.297 543.981 207.732 543.941C209.881 543.916 211.969 543.39 213.825 542.918C214.449 541.95 214.044 541.388 213.622 540.903C205.717 531.826 204.451 520.57 203.251 509.3C203.073 507.619 203.307 505.976 204.713 504.328C208.331 503.018 211.708 501.99 215.462 500.93C218.251 502.426 217.89 504.941 217.889 507.189C217.882 518.565 222.837 527.6 230.661 535.462C233.187 538 235.805 538.625 239.197 537.932C251.913 535.329 251.883 535.406 245.709 524.331C240.844 515.603 238.322 506.207 238.082 496.208C238.025 493.841 238.28 491.554 239.832 489.205C244.1 486.699 247.717 483.572 252.549 481.948C254.906 483.41 254.358 485.454 254.114 487.412C252.467 500.659 256.521 512.386 263.887 523.124C267.182 527.927 268.71 528.163 273.95 525.846C276.688 524.635 279.305 523.17 282.006 521.883C284.693 520.602 285.595 519.377 282.95 516.879C277.709 511.93 273.591 506.039 270.369 499.624C265.48 489.892 264.391 479.715 267.86 468.867C271.162 465.131 273.178 460.731 277.471 457.956C280.75 460.285 279.901 463.665 279.883 466.706C279.795 481.077 285.519 493.154 294.417 503.972C295.459 505.238 296.618 507.677 298.623 506.567C300.229 505.677 299.883 503.354 299.577 501.484C298.223 493.203 295.546 485.392 291.506 478.033C290.259 475.76 288.314 473.631 289.657 470.395Z" fill="#51423C"/>
<path d="M239.618 489.002C240.407 494.422 239.694 500.005 240.918 505.612C242.903 514.705 246.299 523.029 251.884 530.485C254.954 534.584 254.673 535.281 249.806 536.898C249.016 537.16 248.236 537.498 247.424 537.635C242.606 538.444 237.451 542.529 233.176 539.949C227.29 536.396 222.973 530.625 219.819 524.167C216.335 517.033 215.554 509.574 215.892 501.37C223.66 496.983 231.481 493.068 239.618 489.002Z" fill="#7C685D"/>
<path d="M267.697 468.734C268.002 470.186 268.184 471.87 268.002 473.513C265.961 491.896 273.479 506.143 287.098 517.737C289.188 519.516 288.773 520.624 286.533 521.709C281.738 524.031 276.943 526.357 272.204 528.79C269.032 530.419 266.57 529.878 264.417 527.005C254.997 514.434 249.397 500.841 252.81 484.752C252.947 484.107 252.932 483.43 252.95 482.351C256.859 476.619 263.104 473.867 267.697 468.734Z" fill="#7C685D"/>
<path d="M204.578 504.094C205.204 511.184 206.008 518.224 207.745 525.192C209.234 531.167 211.851 536.366 216.183 540.732C217.088 541.645 218.74 542.52 218.318 543.854C217.749 545.653 215.757 544.764 214.375 545.015C212.909 545.281 211.427 545.464 209.969 545.769C202.281 547.38 196.717 545.049 192.502 538.028C187.024 528.901 184.546 519.534 187.138 508.649C192.861 506.871 198.532 505.506 204.578 504.094Z" fill="#7C685D"/>
<path d="M177.627 509.953C177.792 522.793 179.157 535.146 188.386 545.218C188.77 545.637 188.716 546.459 188.835 547.431C181.952 546.661 175.017 547.378 167.691 546.764C159.254 541.997 152.344 526.848 159.361 515.708C160.177 514.413 161.139 513.338 162.875 512.469C167.878 511.492 172.537 510.722 177.627 509.953Z" fill="#7C685D"/>
<path d="M156.117 545.61C148.647 545.28 141.346 544.595 133.619 543.84C124.549 537.523 122.902 520.782 130.717 514.332C137.749 513.984 144.396 514.102 151.403 513.12C153.04 514.818 152.528 516.586 152.077 518.346C150.034 526.316 150.319 533.973 155.013 541.085C155.828 542.319 156.447 543.687 156.117 545.61Z" fill="#7C685D"/>
<path d="M289.705 469.855C292.01 476.573 296.553 481.895 298.275 488.557C299.837 494.597 302.699 500.405 301.232 506.902C300.177 511.571 299.366 511.867 296.077 508.494C284.64 496.767 277.859 482.999 277.965 466.295C277.981 463.807 277.963 461.319 277.881 458.357C277.886 457.502 277.97 457.12 278.132 456.458C281.975 460.647 285.741 465.117 289.705 469.855Z" fill="#7C685D"/>
<path d="M122.473 541.897C115.908 541.939 109.749 540.588 103.225 539.3C96.7743 532.744 96.5271 521.042 102.711 514.318C108.688 514.038 114.339 514.041 120.452 514.063C122.317 515.518 121.882 517.179 121.38 518.769C119.405 525.03 119.229 531.173 122.235 537.21C122.906 538.558 123.227 540.045 122.473 541.897Z" fill="#7C685D"/>
<path d="M93.1229 537.536C86.4409 536.317 80.058 534.817 73.3251 533.168C69.3333 526.965 70.4164 518.311 75.7663 513.42C81.8606 513.055 87.5884 512.794 93.6832 513.841C94.7374 515.191 94.7511 516.505 94.3327 517.792C92.6025 523.112 92.6225 528.473 93.805 533.888C94.0532 535.024 94.0205 536.186 93.1229 537.536Z" fill="#7C685D"/>
<path d="M156.372 545.995C148.032 536.12 146.816 525.372 151.717 513.475C155.326 512.793 158.831 512.449 162.777 512.183C162.114 514.465 160.937 516.636 159.915 518.879C156.44 526.507 158.673 533.343 162.94 539.871C164.293 541.941 165.649 544.01 167.123 546.388C163.685 547.648 160.271 546.364 156.372 545.995Z" fill="#51423B"/>
<path d="M122.569 542.353C121.185 537.915 117.891 534.501 117.869 529.691C117.846 524.449 118.52 519.501 120.895 514.447C124.006 514.079 127.098 514.077 130.654 514.12C125.638 524.206 127.029 533.808 133.08 543.446C129.768 543.343 126.342 542.914 122.569 542.353Z" fill="#51423B"/>
<path d="M38.1888 527.622C31.0244 527.755 24.4501 529.621 17.4072 531.117C13.1183 530.073 11.0443 527.925 12.7225 523.317C19.5034 516.996 27.8025 515.664 36.4336 514.184C38.9631 518.366 38.7666 522.836 38.1888 527.622Z" fill="#7C685D"/>
<path d="M63.4001 529.937C58.0712 529.421 53.0784 528.632 47.6798 527.759C43.15 523.491 42.8583 518.691 46.7725 513.423C53.1138 513.04 59.1089 512.956 65.5727 512.924C66.0492 518.645 65.3244 524.215 63.4001 529.937Z" fill="#7C685D"/>
<path d="M93.2515 537.876C90.4913 529.977 89.4741 522.191 93.9296 514.283C96.7725 513.959 99.4537 513.973 102.586 514.011C99.7543 522.098 99.2446 530.185 102.871 538.69C99.8278 538.696 96.7536 538.316 93.2515 537.876Z" fill="#51423B"/>
<path d="M63.3493 530.413C62.9342 524.522 62.0135 518.709 65.8843 513.307C69.0976 513.003 72.1537 513.032 75.6741 513.106C72.8295 519.086 72.723 525.559 72.9638 532.554C69.8616 532.219 66.7481 531.418 63.3493 530.413Z" fill="#51423B"/>
<path d="M46.6918 513.099C45.7046 517.716 45.7656 522.309 47.193 527.288C44.4652 527.772 41.6564 527.871 38.3844 527.947C36.7291 523.671 35.1757 519.446 36.85 514.573C39.9705 513.817 43.1177 513.446 46.6918 513.099Z" fill="#51423B"/>
<path d="M12.6394 523.037C12.4578 526.357 14.7158 528.354 16.8545 530.804C16.437 532.208 15.5098 532.88 14.4012 533.267C11.3494 534.334 7.73505 535.18 5.79572 532.284C4.07119 529.708 7.35843 527.746 8.85502 525.767C9.72565 524.615 10.777 523.499 12.6394 523.037Z" fill="#51423C"/>
<path d="M327.987 515.006C327.877 514.88 327.789 514.736 327.702 514.591C327.785 514.627 327.869 514.664 328 514.822C328.048 514.942 328.009 514.986 327.987 515.006Z" fill="black"/>
</svg>
