<svg width="1280" height="640" viewBox="0 0 1280 640" fill="none" xmlns="http://www.w3.org/2000/svg">
<g clip-path="url(#clip0_2_666)">
<path d="M1273.8 379.031C1275.9 378.925 1278.04 379.665 1280.58 380.007C1281 383.031 1281 386.061 1281 389.546C1275.01 397.931 1264.22 401.382 1260.9 411.9C1259.83 415.274 1257.2 417.787 1253.3 418.375C1249.9 418.888 1246.64 417.83 1246.45 414.414C1246.09 407.849 1241.19 407.164 1236.85 406.285C1227.19 404.326 1217.43 404.888 1207.68 406.232C1199.49 407.359 1191.26 408.103 1183.04 408.989C1182.73 409.023 1182.42 409.057 1182.1 409.09L1183.28 404.364C1189.23 403.662 1195.18 402.899 1201.14 402.459C1208.91 401.887 1216.6 400.309 1224.83 400.78C1229.24 402.284 1233.47 400.905 1237.58 402C1243.11 403.473 1248.07 405.24 1250.06 411.383C1251.03 414.374 1253.08 414.109 1255.05 412.262C1256.26 411.128 1257.45 409.823 1258.01 408.276C1260.37 401.779 1265.52 397.847 1270.8 394.032C1272.04 393.14 1273.14 392.275 1273.88 390.882C1277.08 384.879 1276.39 383.9 1269.71 383.504C1261.94 383.043 1254.87 379.966 1247.55 376.627C1243.83 374.288 1241.85 376.588 1239.51 378.61C1226.68 389.725 1211.8 394.637 1194.85 392.77C1191.84 392.439 1188.94 391.587 1187.19 388.741L1187.99 385.531C1191.53 385.084 1194.34 387.793 1198.03 387.336C1201.47 386.768 1204.61 387.105 1208.03 386.451C1213.27 386.685 1217.56 384.935 1222 382.454C1225.16 380.615 1228.38 379.636 1231.24 377.26C1232.72 376.46 1233.98 376.001 1235.07 375.208C1238.1 372.986 1238.76 371.465 1236.99 369.5H1243.73C1243.91 369.605 1244.09 369.71 1244.27 369.814C1253.41 375.1 1262.79 379.585 1273.8 379.031Z" fill="#301E15"/>
<path d="M1226.4 402.613C1218.25 401.927 1210.59 403.721 1202.86 404.347C1196.14 404.892 1189.44 405.792 1182.74 406.571L1187.69 386.745C1190.77 392.139 1196.77 391.861 1201.8 391.526C1216.84 390.525 1230.76 386.097 1241.18 374.289C1243.74 371.387 1245.45 373.318 1247.74 374.848C1250.48 380.771 1247.42 385.597 1244.57 389.814C1240.34 396.082 1234.7 401.094 1226.4 402.613Z" fill="#51423B"/>
<path d="M1226.53 402.872C1226.26 401.709 1227.04 401.261 1228.02 400.846C1239.22 396.13 1245.96 387.836 1247.99 375.406C1252.69 376.725 1257.33 378.519 1262.05 380.107C1265.66 381.324 1269.25 382.19 1273.24 381.326C1277.22 380.467 1278.84 382.46 1277.96 386.478C1277.1 390.368 1274.89 393.546 1271.67 395.771C1265.69 399.911 1260.54 404.64 1258.13 411.787C1257.6 413.379 1256.43 414.787 1254.86 415.4C1252 416.516 1248.78 416.86 1248.33 412.843C1247.73 407.409 1244.09 405.689 1239.76 404.525C1235.59 403.402 1231.31 402.81 1226.53 402.872Z" fill="#6D4C47"/>
<path d="M1255.23 397.324C1260.16 393.567 1264.64 389.606 1271.25 390.678C1264.95 393.71 1261.29 399.029 1258.04 404.773C1257.15 406.347 1256.9 409.294 1254.2 408.296C1251.57 407.321 1251.77 404.57 1252.2 402.229C1252.54 400.395 1253.66 398.903 1255.23 397.324Z" fill="#36231C"/>
</g>
<defs>
<clipPath id="clip0_2_666">
<rect width="1280" height="640" fill="white"/>
</clipPath>
</defs>
</svg>
