<svg width="1280" height="640" viewBox="0 0 1280 640" fill="none" xmlns="http://www.w3.org/2000/svg">
<g clip-path="url(#clip0_2_666)">
<path d="M1281 389.546C1275.01 397.931 1264.22 401.382 1260.9 411.9C1259.83 415.274 1257.2 417.787 1253.3 418.375C1249.9 418.888 1246.64 417.83 1246.45 414.414C1246.09 407.849 1241.19 407.164 1236.85 406.285C1227.19 404.326 1217.43 404.888 1207.68 406.232C1199.49 407.359 1191.26 408.103 1183.04 408.989C1176.97 409.645 1170.88 410.219 1164.81 410.896C1158.63 411.584 1152.49 410.398 1146.48 409.72C1125.55 407.362 1105.06 402.526 1084.63 397.431C1061.05 391.551 1038.22 383.469 1015.57 374.772C1002.28 369.67 989.234 363.682 974.439 362.032C972.869 362.211 972.612 361.477 972.662 360.165C976.053 357.024 979.72 358.073 983.251 358.823C995.673 361.462 1007.32 366.486 1019 371.213C1048.97 383.344 1079.92 392.128 1111.45 399.016C1114.37 399.654 1117.16 400.781 1120.56 401.143C1133.24 403.322 1145.52 405.412 1157.99 405.896C1172.5 406.458 1186.75 403.521 1201.14 402.459C1208.91 401.887 1216.6 400.309 1224.83 400.78C1229.24 402.284 1233.47 400.905 1237.58 402C1243.11 403.473 1248.07 405.24 1250.06 411.383C1251.03 414.374 1253.08 414.109 1255.05 412.262C1256.26 411.128 1257.45 409.823 1258.01 408.276C1260.37 401.779 1265.52 397.848 1270.8 394.032C1272.04 393.14 1273.14 392.275 1273.88 390.882C1277.08 384.879 1276.39 383.9 1269.71 383.504C1261.94 383.043 1254.87 379.966 1247.55 376.627C1243.83 374.288 1241.85 376.589 1239.51 378.61C1226.68 389.725 1211.8 394.637 1194.85 392.77C1191.34 392.383 1187.98 391.287 1186.41 387.138C1186.49 386.506 1186.58 386.261 1186.95 385.754C1191 384.534 1193.98 387.837 1198.03 387.336C1201.47 386.768 1204.61 387.105 1208.03 386.451C1213.27 386.685 1217.56 384.935 1222 382.454C1225.16 380.615 1228.38 379.636 1231.24 377.26C1232.72 376.46 1233.98 376.001 1235.07 375.208C1238.84 372.447 1238.94 370.768 1235.28 367.975C1227.86 362.297 1221.46 355.493 1215.06 348.784C1177.81 309.7 1139.17 272.251 1094.18 241.898C1075.47 229.277 1055.05 220.775 1033.46 214.772C1028.04 213.265 1022.62 211.773 1017.08 210.652C1012.64 209.754 1010.2 211.024 1008.42 214.973C1007.2 217.678 1005.78 220.377 1003.48 222.407C1002.73 223.073 1001.79 223.511 1000.53 222.503C999.29 219.532 1000.59 217.283 1001.71 215.086C1012.29 194.324 1017 172.081 1019.17 149.045C1020.4 136.007 1020.08 123.148 1017.97 110.294C1016.81 103.179 1014.74 96.3619 1010.24 90.5096C1009.01 88.9155 1007.96 87.197 1008.58 84.6481C1013.34 85.6963 1016.45 88.8177 1018.25 93.0847C1024.3 107.365 1025.09 122.473 1025.01 137.7C1025.01 138.01 1025.06 138.375 1025.23 138.608C1025.31 138.721 1025.73 138.587 1026.1 138.305C1026.31 137.82 1026.43 137.595 1026.76 137.686C1041.23 124.718 1053.17 109.869 1058.93 90.8136C1059.74 88.1216 1060.95 85.5486 1062.02 82.9355C1063.3 79.7992 1065.56 80.1101 1066.61 82.5599C1070.61 91.8338 1075.54 100.983 1075.93 111.297C1077.05 140.836 1067.91 167.499 1052.47 192.325C1048.26 199.093 1043.41 205.301 1037.56 211.143C1045.87 214.148 1053.96 216.844 1061.88 219.983C1081.19 227.636 1098.26 239.125 1114.89 251.369C1140.61 270.319 1164.16 291.721 1186.87 314.152C1195.72 322.899 1204.71 331.475 1213.28 340.53C1223.04 350.838 1231.64 362.511 1244.27 369.814C1253.41 375.1 1262.79 379.585 1273.8 379.031C1275.9 378.925 1278.04 379.665 1280.58 380.008C1281 383.031 1281 386.061 1281 389.546Z" fill="#301E15"/>
<path d="M975.111 246.34C967.771 244.549 964.6 239.07 962.243 233.094C957.402 220.821 956.26 207.961 957.176 194.917C957.946 183.949 960.417 173.296 964.077 162.533C964.248 159.997 964.812 158.007 965.683 155.978C974.805 134.725 985.463 114.268 997.244 94.382C998.518 92.2316 999.446 89.9029 1000.9 87.4585C1001.19 87.2205 1001.24 87.2046 1001.25 87.1786C1002.77 85.6183 1002.51 82.517 1005.9 82.4597C1006.98 82.9753 1007.71 83.3655 1008.61 84.019C1013.92 91.4958 1018.24 99.0759 1019.8 107.972C1023.01 126.181 1022.57 144.38 1019.61 162.548C1016.36 182.503 1011.64 202.018 1001.64 219.873C1001.25 220.575 1001.17 221.45 1001 222.905C1001.08 223.952 1001.04 224.332 1000.84 224.98C1000.64 225.425 1000.54 225.597 1000.28 226.006C999.848 226.542 999.638 226.872 999.356 227.512C999.155 227.982 999.063 228.167 998.812 228.624C998.535 229.072 998.417 229.25 997.873 229.918C996.778 231.049 996.432 231.871 995.995 233.058C992.597 239.122 990.028 245.458 982.708 247.419C980.106 248.117 977.578 249.076 975.111 246.34Z" fill="#564740"/>
<path d="M1000.88 87.2681C1000.04 92.8934 996.502 97.4185 993.799 102.317C983.139 121.639 973.756 141.58 964.39 161.905C963.854 161.618 963.551 161.073 963.112 160.249C965.084 151.92 969.117 144.65 972.536 137.164C979.439 122.048 987.76 107.662 996.728 93.6774C998.071 91.5843 997.31 88.2036 1000.88 87.2681Z" fill="#301E15"/>
<path d="M1006.2 82.2797C1003.79 83.0067 1003.62 85.7643 1001.56 87.0286C1001.06 84.8654 1002.38 83.1091 1003.51 81.3839C1004.57 79.77 1005.61 80.1999 1006.2 82.2797Z" fill="#301E15"/>
<path d="M974.626 246.287C981.43 247.441 987.641 244.472 990.727 238.609C991.865 236.446 993.301 234.439 994.875 232.15C995.862 231.232 996.205 230.301 996.832 229.201C997.01 228.968 997.002 229.004 996.986 229.013C997.206 228.795 997.439 228.565 997.84 228.156C998.011 227.981 998.008 228.006 997.995 228.01C998.69 227.256 998.877 226.18 999.79 225.2C1000 224.981 1000.01 225.005 999.996 225.009C1000.43 224.586 1000.49 223.996 1000.82 223.217C1000.99 222.986 1001 223 1000.99 222.999C1004.28 220.026 1006.01 216.009 1007.83 212.144C1009.45 208.698 1011.38 207.752 1015.26 208.487C1054.08 215.828 1088.22 232.854 1118.99 257.358C1137.36 271.979 1155.24 287.063 1172.19 303.339C1184.32 314.992 1196.37 326.719 1208.16 338.71C1218.31 349.027 1227.48 360.313 1238.99 369.24C1240.8 370.644 1240.9 371.783 1239.29 373.199C1237.32 374.927 1235.98 377.466 1232.8 378.112C1230.42 378.016 1229.36 376.761 1228.82 374.584C1229.71 372.406 1232.1 372.774 1233.48 370.901C1228.53 366.831 1224.31 362.015 1219.29 357.625C1219.41 362.058 1221.43 365.645 1225.52 369.318C1226.95 370.598 1229.02 371.372 1229.03 373.978C1227.39 375.995 1225.28 375.694 1223.38 376.034C1220.1 376.622 1217.04 377.719 1214.52 379.994C1213.93 380.525 1213.16 381.143 1213.53 382.047C1213.91 382.951 1214.85 382.81 1215.67 382.754C1218.07 382.592 1220.45 381.261 1223.02 382.984C1219.35 386.762 1214.57 387.463 1209.31 387.924C1205.1 382.882 1199.85 380.3 1193.88 379.099C1192.21 378.764 1189.63 378.185 1188.97 380.112C1188.22 382.312 1190.97 382.647 1192.39 383.549C1194.51 384.892 1197.72 384.713 1198.34 388.284C1194.31 389.561 1191.16 387.338 1187.34 386.086C1190.29 392.161 1196.58 391.874 1201.8 391.526C1216.84 390.525 1230.76 386.097 1241.18 374.29C1243.74 371.387 1245.45 373.319 1247.74 374.848C1250.48 380.771 1247.42 385.597 1244.57 389.814C1240.34 396.082 1234.7 401.094 1226.4 402.614C1218.25 401.928 1210.59 403.721 1202.86 404.347C1187.33 405.605 1171.93 408.762 1156.27 407.932C1144.35 407.3 1132.49 405.767 1120.44 402.945C1109.13 393.895 1096.18 389.603 1082.8 385.673C1054.55 377.38 1026.09 369.514 999.562 356.342C986.233 349.723 974.105 341.149 963.114 331.135C954.474 323.263 948.907 313.364 947.762 301.637C946.067 284.284 947.194 267.377 959.071 253.122C961.385 250.344 963.492 247.221 967.617 246.002C970.126 246.223 972.137 247.691 974.626 246.287Z" fill="#51423B"/>
<path d="M967.85 245.679C964.555 250.43 960.208 254.103 957.06 258.851C952.734 265.375 950.373 272.588 949.493 280.228C947.332 298.991 949.634 316.714 964.692 330.038C981.623 345.017 1000.62 356.848 1022.16 364.15C1041.19 370.604 1060.29 376.878 1079.46 382.9C1087.21 385.332 1095.26 386.787 1102.75 390.082C1109.29 392.962 1115.83 395.868 1119.97 402.576C1096.34 397.867 1072.71 392.512 1049.77 384.665C1031.88 378.544 1014.33 371.444 996.596 364.858C989.278 362.141 981.898 359.561 973.437 360.021C966.642 360.023 960.297 360.01 953.486 359.989C945.586 352.487 942.452 342.885 940.114 332.997C938.159 324.732 940.04 316.48 941.003 308.263C943.084 290.492 945.643 272.787 950.079 255.433C952.039 247.766 953.838 239.962 958.616 233.01C961.975 237.003 963.821 241.896 967.85 245.679Z" fill="#48372F"/>
<path d="M1037.85 132.441C1050.15 118.655 1057.26 102.399 1064.3 84.7678C1068.13 92.0667 1071.48 97.9376 1072.31 105.579C1074.36 124.408 1070.94 142.274 1064.87 159.805C1059.74 174.648 1052.04 188.205 1042.3 200.929C1038.57 197.821 1039.36 193.226 1039.21 189.384C1038.57 173.006 1037.34 156.656 1036.91 140.271C1036.84 137.776 1036.89 135.291 1037.85 132.441Z" fill="#51423B"/>
<path d="M1037.63 132.139C1038.85 132.839 1039.06 133.98 1038.98 135.165C1038.33 145.302 1040.06 155.344 1040.14 165.473C1040.22 177.042 1041.33 188.604 1042 200.637C1040.57 204.64 1037.51 206.816 1035.04 209.491C1033.82 210.812 1032.49 210.536 1030.94 210.201C1025.58 209.053 1020.38 207.225 1014.88 206.716C1012.19 206.467 1011.32 205.152 1012.32 202.324C1018.61 184.538 1022.05 166.125 1023.98 147.408C1024.17 145.577 1025.12 144.347 1026.32 143.165C1030 139.547 1033.67 135.927 1037.63 132.139Z" fill="#48372F"/>
<path d="M1226.53 402.872C1226.26 401.709 1227.04 401.261 1228.02 400.846C1239.22 396.13 1245.96 387.836 1247.99 375.406C1252.69 376.725 1257.33 378.519 1262.05 380.107C1265.66 381.324 1269.25 382.19 1273.24 381.326C1277.22 380.467 1278.84 382.46 1277.96 386.478C1277.1 390.368 1274.89 393.546 1271.67 395.771C1265.69 399.911 1260.54 404.64 1258.13 411.787C1257.6 413.379 1256.43 414.787 1254.86 415.4C1252 416.516 1248.78 416.86 1248.33 412.843C1247.73 407.409 1244.09 405.689 1239.76 404.525C1235.59 403.402 1231.31 402.81 1226.53 402.872Z" fill="#6D4C47"/>
<path d="M1198.65 388.657C1196.03 385.752 1192.2 386.224 1189.52 384.314C1187.79 383.082 1185.12 382.127 1185.67 379.719C1186.29 377.064 1189.16 377.081 1191.48 377.042C1197.6 376.938 1202.56 380.015 1207.45 383.143C1208.81 384.013 1209.08 385.563 1208.91 387.509C1205.7 389.21 1202.37 388.801 1198.65 388.657Z" fill="#7C685D"/>
<path d="M1228.57 374.018C1229.95 375.234 1231.79 375.704 1232.31 377.817C1230.35 381.098 1226.99 381.906 1223.52 383.213C1220.43 383.835 1217.71 384.464 1214.95 384.861C1213.34 385.093 1211.5 385.24 1210.54 383.47C1209.49 381.533 1211.07 380.41 1212.21 379.292C1216.66 374.963 1222.15 373.698 1228.57 374.018Z" fill="#7C685D"/>
<path d="M959.012 232.588C952.075 246.741 949.013 261.675 947.037 276.877C944.988 292.642 942.837 308.404 941.32 324.224C940.598 331.757 943.127 338.968 946.392 345.79C948.546 350.291 950.723 354.78 952.955 359.628C946.558 360.099 940.176 361.407 933.675 361.158C931.667 361.081 931.252 360.935 931.499 358.736C935.378 324.167 939.84 289.702 949.004 256.039C951.096 248.353 953.155 240.642 956.405 233.34C956.717 232.639 956.913 229.457 959.012 232.588Z" fill="#36231C"/>
<path d="M977.558 154.001C979.59 155.872 979.026 158.132 978.957 160.214C978.639 169.862 979.571 179.364 981.955 188.716C984.593 199.058 993.692 201.605 1001.33 194.195C1002.86 192.713 1004.08 190.841 1006.56 190.009C1008.58 192.439 1006.28 194.27 1005.71 196.351C1005.15 198.401 1003.68 200.154 1003.22 202.697C1003.01 203.031 1003 202.995 1003.02 202.996C1002.1 203.988 1002.01 205.371 1001.2 206.775C1001.01 207.037 1000.99 206.995 1001.01 206.993C1000.59 207.411 1000.48 207.932 1000.78 208.725C998.152 215.24 995.347 221.547 992.53 227.848C991.242 230.73 990.03 234.152 986.503 234.452C982.821 234.765 980.842 231.681 979.057 228.478C978.595 227.654 978.516 227.037 978.162 226.217C977.964 225.984 978.014 225.988 978.013 226.013C977.791 225.791 977.562 225.553 977.142 225.155C976.96 224.987 977.009 224.994 977.004 225.018C976.581 224.588 976.514 223.99 976.154 223.211C975.964 222.987 976.013 222.992 976.004 223.015C975.578 222.585 975.514 221.988 975.155 221.212C974.964 220.989 975.011 220.994 975.001 221.015C967.086 198.42 970.003 176.146 977.558 154.001Z" fill="#48372F"/>
<path d="M978.02 153.6C974.09 162.784 972.707 172.262 972.266 181.617C971.691 193.832 970.379 206.289 974.824 218.236C975.047 218.836 974.954 219.554 975 220.627C969.405 211.27 968.378 200.563 969.146 189.696C970.013 177.425 971.895 165.271 975.988 153.578C976.37 152.488 976.928 151.461 977.71 150.208C978.021 151.074 978.026 152.138 978.02 153.6Z" fill="#301E15"/>
<path d="M1003.28 202.812C1002.79 198.449 1005.78 194.864 1006.87 190.31C1013.67 174.101 1013.35 157.337 1013.17 140.588C1016.62 163.814 1016.4 178.235 1003.28 202.812Z" fill="#301E15"/>
<path d="M977.984 149.985C977.96 148.447 977.778 146.863 979.339 145.658C980.381 147.403 979.126 148.436 978.276 149.812C978.017 150.011 977.995 149.995 977.984 149.985Z" fill="#301E15"/>
<path d="M1001.3 206.863C1000.95 205.595 1001.13 204.247 1002.73 203.157C1003.05 204.422 1002.71 205.709 1001.3 206.863Z" fill="#301E15"/>
<path d="M999.667 225.039C999.948 226.12 999.46 227.032 998.27 227.868C997.944 226.815 998.086 225.701 999.667 225.039Z" fill="#301E15"/>
<path d="M996.738 229.128C997.011 230.083 997.019 231.202 995.455 231.846C995.054 230.79 995.522 229.921 996.738 229.128Z" fill="#301E15"/>
<path d="M981.373 140.33C981.517 139.564 981.873 138.752 982.275 138.729C982.885 138.693 982.703 139.324 982.243 139.875C981.908 140.222 981.756 140.429 981.373 140.33Z" fill="#36231C"/>
<path d="M1000.98 208.612C1000.31 208.497 1000.08 207.972 1000.83 207.141C1001.03 207.423 1001.01 207.856 1000.98 208.612Z" fill="#301E15"/>
<path d="M974.998 221.287C975.288 221.472 975.612 221.954 975.965 222.738C975.674 222.554 975.353 222.069 974.998 221.287Z" fill="#301E15"/>
<path d="M980.811 142.119C980.911 142.424 980.784 142.821 980.656 143.218C980.015 142.927 980.353 142.565 980.811 142.119Z" fill="#301E15"/>
<path d="M977.999 226.292C978.286 226.495 978.609 227.007 978.967 227.831C978.68 227.629 978.357 227.114 977.999 226.292Z" fill="#301E15"/>
<path d="M981.085 140.344C981.14 140.024 981.599 140.016 981.829 140.016C981.873 140.565 981.687 141.115 981.27 141.846C981.039 142.027 980.997 141.995 980.977 141.977C980.981 141.527 981.006 141.096 981.085 140.344Z" fill="#301E15"/>
<path d="M1000.73 223.139C1000.81 223.539 1000.64 224.093 1000.22 224.83C1000.14 224.439 1000.3 223.866 1000.73 223.139Z" fill="#301E15"/>
<path d="M976 223.284C976.286 223.472 976.609 223.957 976.966 224.742C976.679 224.555 976.358 224.069 976 223.284Z" fill="#301E15"/>
<path d="M997.78 228.087C997.818 228.255 997.625 228.53 997.201 228.913C997.163 228.745 997.355 228.47 997.78 228.087Z" fill="#301E15"/>
<path d="M977.082 225.212C977.225 225.192 977.489 225.397 977.882 225.82C977.742 225.838 977.472 225.638 977.082 225.212Z" fill="#301E15"/>
<path d="M986.475 130.457C986.524 130.427 986.427 130.487 986.475 130.457Z" fill="#36231C"/>
<path d="M983.469 136.447C983.525 136.41 983.412 136.484 983.469 136.447Z" fill="#36231C"/>
<path d="M987.542 128.479C987.568 128.527 987.517 128.43 987.542 128.479Z" fill="#36231C"/>
<path d="M984.547 134.463C984.578 134.52 984.516 134.406 984.547 134.463Z" fill="#36231C"/>
<path d="M985.472 132.452C985.525 132.418 985.419 132.486 985.472 132.452Z" fill="#36231C"/>
<path d="M1156.94 381.834C1159.37 382.635 1160.95 383.812 1160.85 386.188C1160.75 388.525 1158.99 389.72 1157.07 390.382C1148.82 393.223 1140.41 394.326 1131.62 393.458C1102.69 390.604 1077.17 377.98 1051.26 366.234C1031.12 357.104 1012.64 345.466 995.5 331.628C986.832 324.628 978.498 317.206 971.78 308.195C969.761 305.488 968.493 302.493 967.785 299.153C966.548 293.314 968.035 289.019 972.629 286.252C976.675 283.815 984.907 284.625 988.162 287.786C1001.17 300.419 1014.06 313.186 1027.23 325.641C1035.63 333.576 1045.75 339.146 1055.71 344.84C1071.5 353.861 1087.94 361.586 1105.15 367.405C1122 373.104 1139.31 377.356 1156.94 381.834Z" fill="#564740"/>
<path d="M1058.76 289.714C1059.13 290.725 1059.85 291.562 1058.28 291.897C1057.65 291.616 1057.17 291.528 1056.65 291.462C1056.92 291.611 1057.28 291.549 1057.74 291.903C1059.38 293.666 1060.83 295.26 1062.34 296.787C1068.02 302.512 1069.34 306.18 1068.68 314.713C1066.07 312.676 1068.06 308.531 1065.06 306.531C1063.28 311.606 1062.44 317.83 1056.5 318.754C1048.22 320.042 1040.7 317.133 1035.16 310.535C1028.87 303.05 1029.68 296.69 1037.71 290.171C1039.64 289.104 1041.3 289.502 1042.62 289.657C1041.61 289.071 1040.1 289.729 1038.34 289.268C1028.65 288.826 1019.08 290.133 1010.49 284.81C1007.49 282.952 1004.78 280.91 1003.07 277.349C1007.21 278.695 1009.79 282.751 1014.22 284.14C1019.3 285.735 1024.48 286.997 1029.76 286.885C1037.23 286.725 1044.59 287.894 1052.47 288.076C1055.2 286.75 1056.93 287.823 1058.76 289.714Z" fill="#36231C"/>
<path d="M1035.95 227.928C1034.52 233.254 1032.08 234.803 1026.83 234.448C1022.1 234.127 1017.77 232.504 1013.53 230.619C1010.12 229.104 1009.22 224.461 1011.95 220.83C1014.81 217.029 1016.9 211.784 1023.39 213.056C1029.28 214.211 1034.45 220.045 1035.95 227.928Z" fill="#7C685D"/>
<path d="M1191.32 351.906C1199.85 347.824 1211.42 357.456 1210.11 364.795C1209.84 366.288 1209.71 367.711 1208.57 368.859C1205.21 372.246 1194.2 371.887 1190.93 368.254C1187 363.871 1187.01 355.227 1191.32 351.906Z" fill="#7C685D"/>
<path d="M1154.63 320.175C1157.47 322.617 1159.37 325.282 1160.74 328.368C1163.43 334.403 1161.77 337.816 1155.33 339.346C1148.5 340.968 1139.99 334.218 1140.11 327.286C1140.24 319.934 1147.62 316.126 1154.63 320.175Z" fill="#7C685D"/>
<path d="M1123.7 300.21C1128.16 305.74 1128.75 309.318 1125.94 312.433C1123.02 315.671 1113.11 316.213 1109.08 313.354C1105.28 310.657 1103.56 304.416 1105.56 300.357C1106.32 298.82 1107.5 297.395 1109.25 297.283C1114.17 296.969 1119.27 296.07 1123.7 300.21Z" fill="#7C685D"/>
<path d="M1005.05 261.041C1008.5 260.144 1011.45 259.138 1013.84 256.854C1015.41 255.352 1017.28 255.139 1019.39 255.946C1024.21 257.792 1028.16 264.872 1026.85 269.84C1026.01 272.999 1024.15 275.001 1020.51 275.089C1013.68 275.253 1008.01 273.001 1004.37 267.134C1003.4 265.571 1001.44 262.933 1005.05 261.041Z" fill="#7C685D"/>
<path d="M1055.28 224.112C1060.1 223.399 1063.75 225.016 1067.28 227.469C1070.4 229.641 1071.84 232.474 1070.67 235.978C1069.24 240.275 1065.85 242.625 1061.32 242.95C1057.18 243.247 1055.31 240.452 1054.57 237.006C1053.65 232.759 1050.95 228.348 1055.28 224.112Z" fill="#7C685D"/>
<path d="M1059.25 289.796C1057.18 289.474 1055.38 288.911 1053.24 288.212C1052.38 287.241 1051.82 286.419 1051.31 285.569C1047.52 279.309 1048.39 274.902 1053.93 272.201C1058.95 269.748 1063.22 271.005 1065.23 275.529C1067.82 281.342 1065.25 287.627 1059.25 289.796Z" fill="#7C685D"/>
<path d="M1160.15 367.098C1157.96 369.722 1155.33 369.315 1152.97 368.721C1147.6 367.369 1142.8 364.69 1138.3 361.495C1137.23 360.738 1136.06 359.889 1136.52 358.26C1136.98 356.668 1138.14 355.59 1139.69 355.413C1145.49 354.751 1151.39 354.323 1156.79 357.017C1160.75 358.989 1161.78 362.554 1160.15 367.098Z" fill="#7C685D"/>
<path d="M1166.46 339.018C1172.71 340.511 1178.17 343.393 1181.37 349.019C1183.49 352.737 1181.57 356.271 1177.46 357.603C1169.19 360.288 1163.9 355.796 1165.21 347.218C1165.61 344.601 1165.92 341.971 1166.46 339.018Z" fill="#7C685D"/>
<path d="M1139.15 306.75C1136.08 302.848 1134.94 298.76 1136.78 294.482C1137.66 292.443 1147.65 292.187 1150.57 293.837C1154.41 296.003 1154.32 299.227 1152.93 302.84C1150.35 309.508 1144.91 311.215 1139.15 306.75Z" fill="#7C685D"/>
<path d="M1092.93 297.953C1089.21 301.419 1085.93 300.393 1083.28 297.277C1080.9 294.478 1078.73 291.594 1075.25 290.046C1073.4 289.223 1073.01 288.181 1075.05 286.947C1078.67 284.751 1082.63 283.227 1086.79 283.39C1093.74 283.663 1097.14 291.553 1092.93 297.953Z" fill="#7C685D"/>
<path d="M1095.12 249.302C1096.64 253.211 1095.98 256.891 1095.97 260.506C1095.95 263.732 1093.65 265.281 1090.85 265.632C1088.14 265.971 1087.13 263.725 1086.73 261.534C1085.58 255.369 1084.6 249.173 1083.57 242.987C1083.21 240.848 1084.79 241.044 1086.09 240.952C1091.79 240.548 1092.91 245.247 1095.12 249.302Z" fill="#7C685D"/>
<path d="M1174.33 333.911C1170.13 329.902 1169.11 324.633 1171.08 319.641C1171.88 317.606 1173.3 317.913 1174.72 318.501C1178.11 319.907 1181.23 321.795 1183.89 324.355C1185.41 325.822 1187.48 327.18 1186.76 329.729C1185.96 332.547 1183.66 333.949 1181.01 334.722C1178.86 335.352 1176.74 334.884 1174.33 333.911Z" fill="#7C685D"/>
<path d="M1044.69 243.368C1050.37 248.213 1049.41 254.363 1048.48 260.204C1048.03 263.033 1045.29 264.229 1042.24 263.932C1038.95 263.612 1038.84 261.264 1038.97 258.837C1039.15 255.498 1038.66 252.262 1038.14 248.97C1037.41 244.426 1040.05 242.188 1044.69 243.368Z" fill="#7C685D"/>
<path d="M1107.92 341.436C1107.81 340.609 1107.89 339.966 1107.61 339.662C1104.65 336.46 1104.28 333.991 1108.83 331.667C1113.59 329.236 1116.14 329.509 1118.85 333.867C1119.54 334.987 1120.13 336.198 1120.6 337.428C1121.7 340.243 1122.87 343.221 1120.35 345.805C1117.68 348.547 1115.18 346.078 1112.29 345.12C1109.83 344.909 1108.69 343.58 1107.92 341.436Z" fill="#7C685D"/>
<path d="M1229.02 374.01C1222.96 370.696 1219 365.612 1216.64 359.18C1216.11 357.737 1215.52 356.092 1216.86 355.042C1218.4 353.842 1219.62 355.382 1220.66 356.321C1225.44 360.628 1229.46 365.749 1234.84 369.417C1235.74 370.033 1236.83 370.895 1236.5 372.236C1236.1 373.849 1234.63 373.901 1233.3 373.961C1232.15 374.014 1230.99 373.974 1229.41 373.979C1228.98 373.983 1229.01 374.003 1229.02 374.01Z" fill="#7C685D"/>
<path d="M1107.54 341.087C1109.13 342.24 1110.38 343.385 1111.77 344.813C1113.56 349.933 1119.31 350.858 1121.7 355.017C1120.67 355.982 1119.98 355.319 1119.36 354.856C1106.21 344.977 1094 334.095 1084.03 320.91C1082.84 319.341 1082.02 317.497 1081.1 315.312C1088.13 321.465 1093.33 329.708 1100.59 336.047C1102.67 337.865 1104.06 340.624 1107.54 341.087Z" fill="#301E15"/>
<path d="M1109.13 261.33C1115.64 261.529 1117.51 267.446 1121.39 270.68C1123.06 272.064 1120.79 273.717 1118.72 273.966C1111.69 274.812 1106.87 268.767 1109.13 261.33Z" fill="#7C685D"/>
<path d="M1139.19 367.277C1144.71 368.04 1149.2 371.548 1154.01 374.429C1148.78 372.874 1143.83 370.736 1139.19 367.277Z" fill="#301E15"/>
<path d="M1129.78 360.751C1127.03 360.848 1125.08 359.214 1123.58 356.814C1126.08 357.153 1128.01 358.548 1129.78 360.751Z" fill="#301E15"/>
<path d="M1158.98 376.595C1157.92 376.881 1157.2 376.672 1156.88 375.787C1156.84 375.672 1157.2 375.249 1157.4 375.239C1158.25 375.194 1158.97 375.446 1158.98 376.595Z" fill="#301E15"/>
<path d="M1134.18 364.275C1135.5 363.865 1136.75 364.252 1137.82 365.727C1136.51 366.132 1135.25 365.749 1134.18 364.275Z" fill="#301E15"/>
<path d="M1038 289.314C1039.46 289.086 1040.92 289.086 1042.38 289.086C1042.41 289.317 1042.44 289.549 1042.47 289.78C1041.23 289.853 1039.99 289.926 1038.38 289.998C1038 289.997 1038 289.542 1038 289.314Z" fill="#4F4039"/>
<path d="M1130.06 360.938C1131.02 361.365 1131.89 361.878 1132.84 362.742C1131.77 363.095 1130.71 362.898 1129.94 361.488C1129.8 361.191 1129.97 361.023 1130.06 360.938Z" fill="#301E15"/>
<path d="M1161.8 377.295C1162.62 377.146 1163.42 377.171 1163.41 378.001C1163.4 378.631 1162.82 378.603 1162.17 378.156C1161.88 377.834 1161.75 377.682 1161.8 377.295Z" fill="#36231C"/>
<path d="M1078.98 311.711C1078.66 311.556 1078.34 311.075 1078.01 310.297C1078.33 310.462 1078.65 310.923 1078.98 311.711Z" fill="#301E15"/>
<path d="M1069.59 317.845C1069.29 318.097 1069.21 318.274 1069.59 317.845Z" fill="#36231C"/>
<path d="M1080.95 315.031C1080.58 314.61 1080.28 314.128 1080.01 313.29C1080.38 313.388 1080.71 313.841 1081.1 314.569C1081.17 314.844 1081.03 314.97 1080.95 315.031Z" fill="#301E15"/>
<path d="M1185.17 385.231C1185.55 385.172 1186.1 385.33 1186.86 385.705C1187.06 385.922 1186.98 386.015 1186.94 386.061C1186.38 385.887 1185.87 385.667 1185.17 385.231Z" fill="#301E15"/>
<path d="M1185.01 384.996C1185.01 384.991 1184.64 384.761 1184.64 384.761C1184.64 384.761 1184.92 384.791 1184.95 384.903C1184.99 385.015 1185 385.001 1185.01 384.996Z" fill="#301E15"/>
<path d="M1161.84 377.144C1161.99 377.06 1162 377.523 1162 377.754C1161.9 377.733 1161.8 377.48 1161.84 377.144Z" fill="#301E15"/>
<path d="M1138.97 367.023C1138.61 366.959 1138.35 366.78 1138.04 366.298C1137.93 366.079 1138 366.009 1138.03 365.975C1138.39 366.041 1138.65 366.222 1138.96 366.706C1139.06 366.925 1139 366.992 1138.97 367.023Z" fill="#301E15"/>
<path d="M1133.04 362.97C1133.4 363.03 1133.66 363.213 1133.97 363.698C1134.07 363.918 1134 363.992 1133.97 364.027C1133.61 363.969 1133.34 363.791 1133.03 363.309C1132.92 363.092 1133 363.008 1133.04 362.97Z" fill="#301E15"/>
<path d="M1000.54 273.48C1000.57 273.535 1000.51 273.425 1000.54 273.48Z" fill="#301E15"/>
<path d="M1001.95 275.87C1001.86 275.895 1001.77 275.737 1001.67 275.578C1001.76 275.614 1001.86 275.65 1001.95 275.87Z" fill="#301E15"/>
<path d="M1078 309.999L1077.59 309.777C1077.59 309.777 1077.9 309.777 1077.95 309.889C1078 310.002 1078 309.999 1078 309.999Z" fill="#301E15"/>
<path d="M1002.96 277.052C1002.61 276.981 1002.35 276.782 1002.06 276.278C1001.96 276.054 1002 275.999 1002.03 275.974C1002.4 276.029 1002.66 276.21 1002.98 276.708C1003.1 276.925 1003.01 277.006 1002.96 277.052Z" fill="#301E15"/>
<path d="M1079.96 313.034C1079.6 312.958 1079.35 312.762 1079.07 312.257C1078.97 312.037 1079 312 1079.02 311.983C1079.37 312.052 1079.63 312.233 1079.94 312.722C1080.05 312.935 1079.99 313.003 1079.96 313.034Z" fill="#301E15"/>
<path d="M1255.23 397.324C1260.16 393.567 1264.64 389.606 1271.25 390.678C1264.95 393.71 1261.29 399.029 1258.04 404.773C1257.15 406.347 1256.9 409.294 1254.2 408.296C1251.57 407.321 1251.77 404.57 1252.2 402.229C1252.54 400.395 1253.66 398.903 1255.23 397.324Z" fill="#36231C"/>
<path d="M1039.88 294.66C1046.55 291.339 1058.62 295.533 1061.32 301.74C1063.9 307.661 1058.6 314.605 1051.16 314.974C1046.22 315.219 1042.31 313.225 1040.02 308.853C1037.67 304.378 1035.73 299.689 1039.88 294.66Z" fill="#301E15"/>
<path d="M1055.22 291.24C1055.86 291.152 1056.71 291.317 1057.81 291.705C1058.05 291.928 1057.98 292.015 1057.94 292.059C1057.08 291.9 1056.25 291.697 1055.22 291.24Z" fill="#51423B"/>
<path d="M1054.99 291.008C1054.41 290.932 1053.83 290.849 1053.25 290.767C1053.32 290.576 1053.42 290.216 1053.44 290.221C1053.86 290.315 1054.26 290.452 1054.84 290.784C1055.01 290.987 1055 291.002 1054.99 291.008Z" fill="#51423B"/>
<path d="M1047.39 303.707C1044.1 304.522 1042.08 303.483 1041.67 300.412C1041.38 298.175 1042.57 296.524 1044.83 296.061C1047.1 295.595 1048.67 296.734 1049.48 298.828C1050.27 300.864 1049.21 302.298 1047.39 303.707Z" fill="#F2F1F0"/>
<path d="M1047.72 308.71C1047.71 306.3 1048.71 305.364 1050.73 306.289C1051.62 306.7 1052.25 307.668 1051.65 308.687C1050.62 310.422 1049.31 310.816 1047.72 308.71Z" fill="#F2F1F0"/>
</g>
<defs>
<clipPath id="clip0_2_666">
<rect width="1280" height="640" fill="white"/>
</clipPath>
</defs>
</svg>
